<?xml version="1.0" encoding="UTF-8"?>
<!DOCTYPE score-partwise PUBLIC "-//Recordare//DTD MusicXML 3.1 Partwise//EN" "http://www.musicxml.org/dtds/partwise.dtd">
<score-partwise version="3.1">
  <title>sweet home alabama</title>
  <identification>
    <encoding-date>2019-09-21</encoding-date>
  </identification>
  <part id="P1">
    <measure number="1" width="154.18">
      <beats>16</beats>
      <direction placement="above">
        <direction-type>
          <metronome parentheses="no" default-x="-33.50" default-y="40.00" relative-y="1.00">
            <beat-unit>quarter</beat-unit>
            <per-minute>98</per-minute>
          </metronome>
        </direction-type>
        <staff>1</staff>
        <sound tempo="97.9998" />
      </direction>
      <note>
        <rest />
        <duration>16</duration>
        <voice>5</voice>
        <type>whole</type>
        <staff>2</staff>
      </note>
    </measure>
    <measure number="2" width="316.17">
      <beats>16</beats>
      <note default-x="15.42" default-y="-150.00">
        <pitch>
          <step>D</step>
          <octave>3</octave>
        </pitch>
        <duration>1</duration>
        <voice>5</voice>
        <type>16th</type>
        <stem>none</stem>
        <staff>2</staff>
        <notations>
          <technical>
            <string>4</string>
            <fret>0</fret>
          </technical>
        </notations>
      </note>
      <note>
        <rest />
        <duration>1</duration>
        <voice>5</voice>
        <type>16th</type>
        <staff>2</staff>
      </note>
      <note default-x="61.63" default-y="-150.00">
        <pitch>
          <step>D</step>
          <octave>3</octave>
        </pitch>
        <duration>2</duration>
        <voice>5</voice>
        <type>eighth</type>
        <stem>none</stem>
        <staff>2</staff>
        <notations>
          <technical>
            <string>4</string>
            <fret>0</fret>
          </technical>
        </notations>
      </note>
      <note default-x="93.49" default-y="-120.00">
        <pitch>
          <step>D</step>
          <octave>4</octave>
        </pitch>
        <duration>1</duration>
        <voice>5</voice>
        <type>16th</type>
        <stem>none</stem>
        <staff>2</staff>
        <notations>
          <technical>
            <string>2</string>
            <fret>3</fret>
          </technical>
        </notations>
      </note>
      <note default-x="113.40" default-y="-135.00">
        <pitch>
          <step>A</step>
          <octave>3</octave>
        </pitch>
        <duration>2</duration>
        <voice>5</voice>
        <type>eighth</type>
        <stem>none</stem>
        <staff>2</staff>
        <notations>
          <technical>
            <string>3</string>
            <fret>2</fret>
          </technical>
        </notations>
      </note>
      <note>
        <rest />
        <duration>1</duration>
        <voice>5</voice>
        <type>16th</type>
        <staff>2</staff>
      </note>
      <note default-x="165.17" default-y="-165.00">
        <pitch>
          <step>C</step>
          <octave>3</octave>
        </pitch>
        <duration>1</duration>
        <voice>5</voice>
        <type>16th</type>
        <stem>none</stem>
        <staff>2</staff>
        <notations>
          <technical>
            <string>5</string>
            <fret>3</fret>
          </technical>
        </notations>
      </note>
      <note>
        <rest />
        <duration>1</duration>
        <voice>5</voice>
        <type>16th</type>
        <staff>2</staff>
      </note>
      <note default-x="211.39" default-y="-165.00">
        <pitch>
          <step>C</step>
          <octave>3</octave>
        </pitch>
        <duration>2</duration>
        <voice>5</voice>
        <type>eighth</type>
        <stem>none</stem>
        <staff>2</staff>
        <notations>
          <technical>
            <string>5</string>
            <fret>3</fret>
          </technical>
        </notations>
      </note>
      <note default-x="243.25" default-y="-120.00">
        <pitch>
          <step>D</step>
          <octave>4</octave>
        </pitch>
        <duration>1</duration>
        <voice>5</voice>
        <type>16th</type>
        <stem>none</stem>
        <staff>2</staff>
        <notations>
          <technical>
            <string>2</string>
            <fret>3</fret>
          </technical>
        </notations>
      </note>
      <note default-x="263.16" default-y="-135.00">
        <pitch>
          <step>G</step>
          <octave>3</octave>
        </pitch>
        <duration>2</duration>
        <voice>5</voice>
        <type>eighth</type>
        <stem>none</stem>
        <staff>2</staff>
        <notations>
          <technical>
            <string>3</string>
            <fret>0</fret>
          </technical>
        </notations>
      </note>
      <note>
        <rest />
        <duration>1</duration>
        <voice>5</voice>
        <type>16th</type>
        <staff>2</staff>
      </note>
    </measure>
    <measure number="3" width="324.02">
      <beats>16</beats>
      <note default-x="15.42" default-y="-180.00">
        <pitch>
          <step>G</step>
          <octave>2</octave>
        </pitch>
        <duration>1</duration>
        <voice>5</voice>
        <type>16th</type>
        <stem>none</stem>
        <staff>2</staff>
        <notations>
          <technical>
            <string>6</string>
            <fret>3</fret>
          </technical>
        </notations>
      </note>
      <note>
        <rest />
        <duration>1</duration>
        <voice>5</voice>
        <type>16th</type>
        <staff>2</staff>
      </note>
      <note default-x="63.10" default-y="-180.00">
        <pitch>
          <step>G</step>
          <octave>2</octave>
        </pitch>
        <duration>2</duration>
        <voice>5</voice>
        <type>eighth</type>
        <stem>none</stem>
        <staff>2</staff>
        <notations>
          <technical>
            <string>6</string>
            <fret>3</fret>
          </technical>
        </notations>
      </note>
      <note default-x="97.30" default-y="-150.00">
        <pitch>
          <step>D</step>
          <octave>3</octave>
        </pitch>
        <duration>4</duration>
        <voice>5</voice>
        <type>quarter</type>
        <stem>none</stem>
        <staff>2</staff>
        <notations>
          <technical>
            <string>4</string>
            <fret>0</fret>
          </technical>
        </notations>
      </note>
      <note default-x="97.30" default-y="-135.00">
        <chord />
        <pitch>
          <step>G</step>
          <octave>3</octave>
        </pitch>
        <duration>4</duration>
        <voice>5</voice>
        <type>quarter</type>
        <stem>none</stem>
        <staff>2</staff>
        <notations>
          <technical>
            <string>3</string>
            <fret>0</fret>
          </technical>
        </notations>
      </note>
      <note default-x="97.30" default-y="-120.00">
        <chord />
        <pitch>
          <step>D</step>
          <octave>4</octave>
        </pitch>
        <duration>4</duration>
        <voice>5</voice>
        <type>quarter</type>
        <stem>none</stem>
        <staff>2</staff>
        <notations>
          <technical>
            <string>2</string>
            <fret>3</fret>
          </technical>
        </notations>
      </note>
      <note default-x="97.30" default-y="-105.00">
        <chord />
        <pitch>
          <step>G</step>
          <octave>4</octave>
        </pitch>
        <duration>4</duration>
        <voice>5</voice>
        <type>quarter</type>
        <stem>none</stem>
        <staff>2</staff>
        <notations>
          <technical>
            <string>1</string>
            <fret>3</fret>
          </technical>
        </notations>
      </note>
      <note default-x="144.33" default-y="-165.00">
        <pitch>
          <step>A</step>
          <octave>2</octave>
        </pitch>
        <duration>1</duration>
        <voice>5</voice>
        <type>16th</type>
        <stem>none</stem>
        <staff>2</staff>
        <notations>
          <slur type="start" number="1" />
          <technical>
            <string>5</string>
            <fret>0</fret>
          </technical>
        </notations>
      </note>
      <note default-x="168.00" default-y="-165.00">
        <pitch>
          <step>B</step>
          <octave>2</octave>
        </pitch>
        <duration>1</duration>
        <voice>5</voice>
        <type>16th</type>
        <stem>none</stem>
        <staff>2</staff>
        <notations>
          <slur type="stop" number="1" />
          <technical>
            <string>5</string>
            <fret>2</fret>
          </technical>
        </notations>
      </note>
      <note default-x="189.38" default-y="-150.00">
        <pitch>
          <step>D</step>
          <octave>3</octave>
        </pitch>
        <duration>1</duration>
        <voice>5</voice>
        <type>16th</type>
        <stem>none</stem>
        <staff>2</staff>
        <notations>
          <technical>
            <string>4</string>
            <fret>0</fret>
          </technical>
        </notations>
      </note>
      <note default-x="210.75" default-y="-150.00">
        <pitch>
          <step>E</step>
          <octave>3</octave>
        </pitch>
        <duration>1</duration>
        <voice>5</voice>
        <type>16th</type>
        <stem>none</stem>
        <staff>2</staff>
        <notations>
          <slur type="start" number="1" />
          <technical>
            <string>4</string>
            <fret>2</fret>
          </technical>
        </notations>
      </note>
      <note default-x="232.13" default-y="-150.00">
        <pitch>
          <step>D</step>
          <octave>3</octave>
        </pitch>
        <duration>1</duration>
        <voice>5</voice>
        <type>16th</type>
        <stem>none</stem>
        <staff>2</staff>
        <notations>
          <slur type="stop" number="1" />
          <technical>
            <string>4</string>
            <fret>0</fret>
          </technical>
        </notations>
      </note>
      <note default-x="253.51" default-y="-165.00">
        <pitch>
          <step>B</step>
          <octave>2</octave>
        </pitch>
        <duration>1</duration>
        <voice>5</voice>
        <type>16th</type>
        <stem>none</stem>
        <staff>2</staff>
        <notations>
          <technical>
            <string>5</string>
            <fret>2</fret>
          </technical>
        </notations>
      </note>
      <note default-x="277.18" default-y="-165.00">
        <pitch>
          <step>A</step>
          <octave>2</octave>
        </pitch>
        <duration>1</duration>
        <voice>5</voice>
        <type>16th</type>
        <stem>none</stem>
        <staff>2</staff>
        <notations>
          <slur type="start" number="1" />
          <technical>
            <string>5</string>
            <fret>0</fret>
          </technical>
        </notations>
      </note>
      <note default-x="300.84" default-y="-165.00">
        <pitch>
          <step>B</step>
          <octave>2</octave>
        </pitch>
        <duration>1</duration>
        <voice>5</voice>
        <type>16th</type>
        <stem>none</stem>
        <staff>2</staff>
        <notations>
          <slur type="stop" number="1" />
          <technical>
            <string>5</string>
            <fret>2</fret>
          </technical>
        </notations>
      </note>
    </measure>
    <measure number="4" width="283.12">
      <beats>16</beats>
      <note default-x="15.42" default-y="-150.00">
        <pitch>
          <step>D</step>
          <octave>3</octave>
        </pitch>
        <duration>1</duration>
        <voice>5</voice>
        <type>16th</type>
        <stem>none</stem>
        <staff>2</staff>
        <notations>
          <technical>
            <string>4</string>
            <fret>0</fret>
          </technical>
        </notations>
      </note>
      <note>
        <rest />
        <duration>1</duration>
        <voice>5</voice>
        <type>16th</type>
        <staff>2</staff>
      </note>
      <note default-x="61.35" default-y="-150.00">
        <pitch>
          <step>D</step>
          <octave>3</octave>
        </pitch>
        <duration>2</duration>
        <voice>5</voice>
        <type>eighth</type>
        <stem>none</stem>
        <staff>2</staff>
        <notations>
          <technical>
            <string>4</string>
            <fret>0</fret>
          </technical>
        </notations>
      </note>
      <note default-x="92.77" default-y="-120.00">
        <pitch>
          <step>D</step>
          <octave>4</octave>
        </pitch>
        <duration>1</duration>
        <voice>5</voice>
        <type>16th</type>
        <stem>none</stem>
        <staff>2</staff>
        <notations>
          <technical>
            <string>2</string>
            <fret>3</fret>
          </technical>
        </notations>
      </note>
      <note default-x="112.41" default-y="-135.00">
        <pitch>
          <step>A</step>
          <octave>3</octave>
        </pitch>
        <duration>2</duration>
        <voice>5</voice>
        <type>eighth</type>
        <stem>none</stem>
        <staff>2</staff>
        <notations>
          <technical>
            <string>3</string>
            <fret>2</fret>
          </technical>
        </notations>
      </note>
      <note>
        <rest />
        <duration>1</duration>
        <voice>5</voice>
        <type>16th</type>
        <staff>2</staff>
      </note>
      <note default-x="163.46" default-y="-165.00">
        <pitch>
          <step>C</step>
          <octave>3</octave>
        </pitch>
        <duration>1</duration>
        <voice>5</voice>
        <type>16th</type>
        <stem>none</stem>
        <staff>2</staff>
        <notations>
          <technical>
            <string>5</string>
            <fret>3</fret>
          </technical>
        </notations>
      </note>
      <note>
        <rest />
        <duration>1</duration>
        <voice>5</voice>
        <type>16th</type>
        <staff>2</staff>
      </note>
      <note default-x="209.40" default-y="-165.00">
        <pitch>
          <step>C</step>
          <octave>3</octave>
        </pitch>
        <duration>2</duration>
        <voice>5</voice>
        <type>eighth</type>
        <stem>none</stem>
        <staff>2</staff>
        <notations>
          <technical>
            <string>5</string>
            <fret>3</fret>
          </technical>
        </notations>
      </note>
      <note default-x="240.82" default-y="-150.00">
        <pitch>
          <step>D</step>
          <octave>3</octave>
        </pitch>
        <duration>4</duration>
        <voice>5</voice>
        <type>quarter</type>
        <stem>none</stem>
        <staff>2</staff>
        <notations>
          <technical>
            <string>4</string>
            <fret>0</fret>
          </technical>
        </notations>
      </note>
      <note default-x="240.82" default-y="-135.00">
        <chord />
        <pitch>
          <step>G</step>
          <octave>3</octave>
        </pitch>
        <duration>4</duration>
        <voice>5</voice>
        <type>quarter</type>
        <stem>none</stem>
        <staff>2</staff>
        <notations>
          <technical>
            <string>3</string>
            <fret>0</fret>
          </technical>
        </notations>
      </note>
      <note default-x="240.82" default-y="-120.00">
        <chord />
        <pitch>
          <step>D</step>
          <octave>4</octave>
        </pitch>
        <duration>4</duration>
        <voice>5</voice>
        <type>quarter</type>
        <stem>none</stem>
        <staff>2</staff>
        <notations>
          <technical>
            <string>2</string>
            <fret>3</fret>
          </technical>
        </notations>
      </note>
      <note default-x="240.82" default-y="-105.00">
        <chord />
        <pitch>
          <step>G</step>
          <octave>4</octave>
        </pitch>
        <duration>4</duration>
        <voice>5</voice>
        <type>quarter</type>
        <stem>none</stem>
        <staff>2</staff>
        <notations>
          <technical>
            <string>1</string>
            <fret>3</fret>
          </technical>
        </notations>
      </note>
    </measure>
    <measure number="5" width="420.40">
      <beats>16</beats>
      <note default-x="53.18" default-y="-180.00">
        <pitch>
          <step>G</step>
          <octave>2</octave>
        </pitch>
        <duration>1</duration>
        <voice>5</voice>
        <type>16th</type>
        <stem>none</stem>
        <staff>2</staff>
        <notations>
          <technical>
            <string>6</string>
            <fret>3</fret>
          </technical>
        </notations>
      </note>
      <note>
        <rest />
        <duration>1</duration>
        <voice>5</voice>
        <type>16th</type>
        <staff>2</staff>
      </note>
      <note default-x="104.12" default-y="-180.00">
        <pitch>
          <step>G</step>
          <octave>2</octave>
        </pitch>
        <duration>2</duration>
        <voice>5</voice>
        <type>eighth</type>
        <stem>none</stem>
        <staff>2</staff>
        <notations>
          <technical>
            <string>6</string>
            <fret>3</fret>
          </technical>
        </notations>
      </note>
      <note default-x="143.55" default-y="-150.00">
        <pitch>
          <step>D</step>
          <octave>3</octave>
        </pitch>
        <duration>3</duration>
        <voice>5</voice>
        <type>eighth</type>
        <dot />
        <stem>none</stem>
        <staff>2</staff>
        <notations>
          <technical>
            <string>4</string>
            <fret>0</fret>
          </technical>
        </notations>
      </note>
      <note default-x="143.55" default-y="-135.00">
        <chord />
        <pitch>
          <step>G</step>
          <octave>3</octave>
        </pitch>
        <duration>3</duration>
        <voice>5</voice>
        <type>eighth</type>
        <dot />
        <stem>none</stem>
        <staff>2</staff>
        <notations>
          <technical>
            <string>3</string>
            <fret>0</fret>
          </technical>
        </notations>
      </note>
      <note default-x="143.55" default-y="-120.00">
        <chord />
        <pitch>
          <step>D</step>
          <octave>4</octave>
        </pitch>
        <duration>3</duration>
        <voice>5</voice>
        <type>eighth</type>
        <dot />
        <stem>none</stem>
        <staff>2</staff>
        <notations>
          <technical>
            <string>2</string>
            <fret>3</fret>
          </technical>
        </notations>
      </note>
      <note default-x="191.64" default-y="-135.00">
        <pitch>
          <step>G</step>
          <octave>3</octave>
        </pitch>
        <duration>1</duration>
        <voice>5</voice>
        <type>16th</type>
        <stem>none</stem>
        <staff>2</staff>
        <notations>
          <technical>
            <string>3</string>
            <fret>0</fret>
          </technical>
        </notations>
      </note>
      <note default-x="216.28" default-y="-135.00">
        <pitch>
          <step>A</step>
          <octave>3</octave>
        </pitch>
        <duration>1</duration>
        <voice>5</voice>
        <type>16th</type>
        <stem>none</stem>
        <staff>2</staff>
        <notations>
          <slur type="start" number="1" />
          <technical>
            <string>3</string>
            <fret>2</fret>
          </technical>
        </notations>
      </note>
      <note default-x="240.93" default-y="-135.00">
        <pitch>
          <step>G</step>
          <octave>3</octave>
        </pitch>
        <duration>1</duration>
        <voice>5</voice>
        <type>16th</type>
        <stem>none</stem>
        <staff>2</staff>
        <notations>
          <slur type="stop" number="1" />
          <technical>
            <string>3</string>
            <fret>0</fret>
          </technical>
        </notations>
      </note>
      <note default-x="265.58" default-y="-135.00">
        <pitch>
          <step>G</step>
          <octave>3</octave>
        </pitch>
        <duration>1</duration>
        <voice>5</voice>
        <type>16th</type>
        <stem>none</stem>
        <staff>2</staff>
        <notations>
          <technical>
            <string>3</string>
            <fret>0</fret>
          </technical>
        </notations>
      </note>
      <note default-x="290.22" default-y="-135.00">
        <pitch>
          <step>B</step>
          <octave>3</octave>
        </pitch>
        <duration>1</duration>
        <voice>5</voice>
        <type>16th</type>
        <stem>none</stem>
        <staff>2</staff>
        <notations>
          <slur type="start" number="1" />
          <technical>
            <string>3</string>
            <fret>4</fret>
          </technical>
        </notations>
      </note>
      <note default-x="314.87" default-y="-135.00">
        <pitch>
          <step>G</step>
          <octave>3</octave>
        </pitch>
        <duration>1</duration>
        <voice>5</voice>
        <type>16th</type>
        <stem>none</stem>
        <staff>2</staff>
        <notations>
          <slur type="stop" number="1" />
          <technical>
            <string>3</string>
            <fret>0</fret>
          </technical>
        </notations>
      </note>
      <note default-x="339.51" default-y="-135.00">
        <pitch>
          <step>G</step>
          <octave>3</octave>
        </pitch>
        <duration>1</duration>
        <voice>5</voice>
        <type>16th</type>
        <stem>none</stem>
        <staff>2</staff>
        <notations>
          <technical>
            <string>3</string>
            <fret>0</fret>
          </technical>
        </notations>
      </note>
      <note default-x="364.16" default-y="-135.00">
        <pitch>
          <step>C</step>
          <octave>4</octave>
        </pitch>
        <duration>1</duration>
        <voice>5</voice>
        <type>16th</type>
        <stem>none</stem>
        <staff>2</staff>
        <notations>
          <technical>
            <string>3</string>
            <fret>5</fret>
          </technical>
          <slide line-type="solid" number="1" type="start" default-y="-137.65" />
        </notations>
      </note>
      <note default-x="396.66" default-y="-135.00">
        <pitch>
          <step>D</step>
          <octave>4</octave>
        </pitch>
        <duration>1</duration>
        <voice>5</voice>
        <type>16th</type>
        <stem>none</stem>
        <staff>2</staff>
        <notations>
          <technical>
            <string>3</string>
            <fret>7</fret>
          </technical>
          <slide line-type="solid" number="1" type="stop" />
        </notations>
      </note>
    </measure>
    <measure number="6" width="297.57">
      <beats>16</beats>
      <note default-x="15.42" default-y="-150.00">
        <pitch>
          <step>D</step>
          <octave>3</octave>
        </pitch>
        <duration>1</duration>
        <voice>5</voice>
        <type>16th</type>
        <stem>none</stem>
        <staff>2</staff>
        <notations>
          <technical>
            <string>4</string>
            <fret>0</fret>
          </technical>
        </notations>
      </note>
      <note>
        <rest />
        <duration>1</duration>
        <voice>5</voice>
        <type>16th</type>
        <staff>2</staff>
      </note>
      <note default-x="65.72" default-y="-150.00">
        <pitch>
          <step>D</step>
          <octave>3</octave>
        </pitch>
        <duration>2</duration>
        <voice>5</voice>
        <type>eighth</type>
        <stem>none</stem>
        <staff>2</staff>
        <notations>
          <technical>
            <string>4</string>
            <fret>0</fret>
          </technical>
        </notations>
      </note>
      <note default-x="104.13" default-y="-150.00">
        <pitch>
          <step>D</step>
          <octave>3</octave>
        </pitch>
        <duration>4</duration>
        <voice>5</voice>
        <type>quarter</type>
        <stem>none</stem>
        <staff>2</staff>
        <notations>
          <technical>
            <string>4</string>
            <fret>0</fret>
          </technical>
        </notations>
      </note>
      <note default-x="104.13" default-y="-135.00">
        <chord />
        <pitch>
          <step>A</step>
          <octave>3</octave>
        </pitch>
        <duration>4</duration>
        <voice>5</voice>
        <type>quarter</type>
        <stem>none</stem>
        <staff>2</staff>
        <notations>
          <technical>
            <string>3</string>
            <fret>2</fret>
          </technical>
        </notations>
      </note>
      <note default-x="104.13" default-y="-120.00">
        <chord />
        <pitch>
          <step>D</step>
          <octave>4</octave>
        </pitch>
        <duration>4</duration>
        <voice>5</voice>
        <type>quarter</type>
        <stem>none</stem>
        <staff>2</staff>
        <notations>
          <technical>
            <string>2</string>
            <fret>3</fret>
          </technical>
        </notations>
      </note>
      <note default-x="156.95" default-y="-165.00">
        <pitch>
          <step>C</step>
          <octave>3</octave>
        </pitch>
        <duration>1</duration>
        <voice>5</voice>
        <type>16th</type>
        <stem>none</stem>
        <staff>2</staff>
        <notations>
          <technical>
            <string>5</string>
            <fret>3</fret>
          </technical>
        </notations>
      </note>
      <note>
        <rest />
        <duration>1</duration>
        <voice>5</voice>
        <type>16th</type>
        <staff>2</staff>
      </note>
      <note default-x="207.25" default-y="-165.00">
        <pitch>
          <step>C</step>
          <octave>3</octave>
        </pitch>
        <duration>2</duration>
        <voice>5</voice>
        <type>eighth</type>
        <stem>none</stem>
        <staff>2</staff>
        <notations>
          <technical>
            <string>5</string>
            <fret>3</fret>
          </technical>
        </notations>
      </note>
      <note default-x="245.66" default-y="-150.00">
        <pitch>
          <step>E</step>
          <octave>3</octave>
        </pitch>
        <duration>4</duration>
        <voice>5</voice>
        <type>quarter</type>
        <stem>none</stem>
        <staff>2</staff>
        <notations>
          <technical>
            <string>4</string>
            <fret>2</fret>
          </technical>
        </notations>
      </note>
      <note default-x="245.66" default-y="-135.00">
        <chord />
        <pitch>
          <step>G</step>
          <octave>3</octave>
        </pitch>
        <duration>4</duration>
        <voice>5</voice>
        <type>quarter</type>
        <stem>none</stem>
        <staff>2</staff>
        <notations>
          <technical>
            <string>3</string>
            <fret>0</fret>
          </technical>
        </notations>
      </note>
      <note default-x="245.66" default-y="-120.00">
        <chord />
        <pitch>
          <step>D</step>
          <octave>4</octave>
        </pitch>
        <duration>4</duration>
        <voice>5</voice>
        <type>quarter</type>
        <stem>none</stem>
        <staff>2</staff>
        <notations>
          <technical>
            <string>2</string>
            <fret>3</fret>
          </technical>
        </notations>
      </note>
      <note default-x="245.66" default-y="-105.00">
        <chord />
        <pitch>
          <step>G</step>
          <octave>4</octave>
        </pitch>
        <duration>4</duration>
        <voice>5</voice>
        <type>quarter</type>
        <stem>none</stem>
        <staff>2</staff>
        <notations>
          <technical>
            <string>1</string>
            <fret>3</fret>
          </technical>
        </notations>
      </note>
    </measure>
    <measure number="7" width="359.51">
      <beats>16</beats>
      <note default-x="15.42" default-y="-180.00">
        <pitch>
          <step>G</step>
          <octave>2</octave>
        </pitch>
        <duration>1</duration>
        <voice>5</voice>
        <type>16th</type>
        <stem>none</stem>
        <staff>2</staff>
        <notations>
          <technical>
            <string>6</string>
            <fret>3</fret>
          </technical>
        </notations>
      </note>
      <note>
        <rest />
        <duration>1</duration>
        <voice>5</voice>
        <type>16th</type>
        <staff>2</staff>
      </note>
      <note default-x="66.62" default-y="-180.00">
        <pitch>
          <step>G</step>
          <octave>2</octave>
        </pitch>
        <duration>2</duration>
        <voice>5</voice>
        <type>eighth</type>
        <stem>none</stem>
        <staff>2</staff>
        <notations>
          <technical>
            <string>6</string>
            <fret>3</fret>
          </technical>
        </notations>
      </note>
      <note default-x="106.45" default-y="-150.00">
        <pitch>
          <step>D</step>
          <octave>3</octave>
        </pitch>
        <duration>4</duration>
        <voice>5</voice>
        <type>quarter</type>
        <stem>none</stem>
        <staff>2</staff>
        <notations>
          <technical>
            <string>4</string>
            <fret>0</fret>
          </technical>
        </notations>
      </note>
      <note default-x="106.45" default-y="-135.00">
        <chord />
        <pitch>
          <step>G</step>
          <octave>3</octave>
        </pitch>
        <duration>4</duration>
        <voice>5</voice>
        <type>quarter</type>
        <stem>none</stem>
        <staff>2</staff>
        <notations>
          <technical>
            <string>3</string>
            <fret>0</fret>
          </technical>
        </notations>
      </note>
      <note default-x="106.45" default-y="-120.00">
        <chord />
        <pitch>
          <step>D</step>
          <octave>4</octave>
        </pitch>
        <duration>4</duration>
        <voice>5</voice>
        <type>quarter</type>
        <stem>none</stem>
        <staff>2</staff>
        <notations>
          <technical>
            <string>2</string>
            <fret>3</fret>
          </technical>
        </notations>
      </note>
      <note default-x="106.45" default-y="-105.00">
        <chord />
        <pitch>
          <step>G</step>
          <octave>4</octave>
        </pitch>
        <duration>4</duration>
        <voice>5</voice>
        <type>quarter</type>
        <stem>none</stem>
        <staff>2</staff>
        <notations>
          <technical>
            <string>1</string>
            <fret>3</fret>
          </technical>
        </notations>
      </note>
      <note default-x="161.23" default-y="-165.00">
        <pitch>
          <step>A</step>
          <octave>2</octave>
        </pitch>
        <duration>1</duration>
        <voice>5</voice>
        <type>16th</type>
        <stem>none</stem>
        <staff>2</staff>
        <notations>
          <slur type="start" number="1" />
          <technical>
            <string>5</string>
            <fret>0</fret>
          </technical>
        </notations>
      </note>
      <note default-x="186.13" default-y="-165.00">
        <pitch>
          <step>B</step>
          <octave>2</octave>
        </pitch>
        <duration>1</duration>
        <voice>5</voice>
        <type>16th</type>
        <stem>none</stem>
        <staff>2</staff>
        <notations>
          <slur type="stop" number="1" />
          <technical>
            <string>5</string>
            <fret>2</fret>
          </technical>
        </notations>
      </note>
      <note default-x="211.02" default-y="-150.00">
        <pitch>
          <step>D</step>
          <octave>3</octave>
        </pitch>
        <duration>1</duration>
        <voice>5</voice>
        <type>16th</type>
        <stem>none</stem>
        <staff>2</staff>
        <notations>
          <technical>
            <string>4</string>
            <fret>0</fret>
          </technical>
        </notations>
      </note>
      <note>
        <rest />
        <duration>1</duration>
        <voice>5</voice>
        <type>16th</type>
        <staff>2</staff>
      </note>
      <note>
        <rest />
        <duration>1</duration>
        <voice>5</voice>
        <type>16th</type>
        <staff>2</staff>
      </note>
      <note>
        <rest />
        <duration>1</duration>
        <voice>5</voice>
        <type>16th</type>
        <staff>2</staff>
      </note>
      <note default-x="310.62" default-y="-165.00">
        <pitch>
          <step>A</step>
          <octave>2</octave>
        </pitch>
        <duration>1</duration>
        <voice>5</voice>
        <type>16th</type>
        <stem>none</stem>
        <staff>2</staff>
        <notations>
          <slur type="start" number="1" />
          <technical>
            <string>5</string>
            <fret>0</fret>
          </technical>
        </notations>
      </note>
      <note default-x="335.52" default-y="-165.00">
        <pitch>
          <step>B</step>
          <octave>2</octave>
        </pitch>
        <duration>1</duration>
        <voice>5</voice>
        <type>16th</type>
        <stem>none</stem>
        <staff>2</staff>
        <notations>
          <slur type="stop" number="1" />
          <technical>
            <string>5</string>
            <fret>2</fret>
          </technical>
        </notations>
      </note>
    </measure>
    <measure number="8" width="374.84">
      <beats>16</beats>
      <note default-x="53.18" default-y="-150.00">
        <pitch>
          <step>D</step>
          <octave>3</octave>
        </pitch>
        <duration>1</duration>
        <voice>5</voice>
        <type>16th</type>
        <stem>none</stem>
        <staff>2</staff>
        <notations>
          <technical>
            <string>4</string>
            <fret>0</fret>
          </technical>
        </notations>
      </note>
      <note>
        <rest />
        <duration>1</duration>
        <voice>5</voice>
        <type>16th</type>
        <staff>2</staff>
      </note>
      <note default-x="108.79" default-y="-150.00">
        <pitch>
          <step>D</step>
          <octave>3</octave>
        </pitch>
        <duration>2</duration>
        <voice>5</voice>
        <type>eighth</type>
        <stem>none</stem>
        <staff>2</staff>
        <notations>
          <technical>
            <string>4</string>
            <fret>0</fret>
          </technical>
        </notations>
      </note>
      <note default-x="153.28" default-y="-150.00">
        <pitch>
          <step>D</step>
          <octave>3</octave>
        </pitch>
        <duration>4</duration>
        <voice>5</voice>
        <type>quarter</type>
        <stem>none</stem>
        <staff>2</staff>
        <notations>
          <technical>
            <string>4</string>
            <fret>0</fret>
          </technical>
        </notations>
      </note>
      <note default-x="153.28" default-y="-135.00">
        <chord />
        <pitch>
          <step>A</step>
          <octave>3</octave>
        </pitch>
        <duration>4</duration>
        <voice>5</voice>
        <type>quarter</type>
        <stem>none</stem>
        <staff>2</staff>
        <notations>
          <technical>
            <string>3</string>
            <fret>2</fret>
          </technical>
        </notations>
      </note>
      <note default-x="153.28" default-y="-120.00">
        <chord />
        <pitch>
          <step>D</step>
          <octave>4</octave>
        </pitch>
        <duration>4</duration>
        <voice>5</voice>
        <type>quarter</type>
        <stem>none</stem>
        <staff>2</staff>
        <notations>
          <technical>
            <string>2</string>
            <fret>3</fret>
          </technical>
        </notations>
      </note>
      <note default-x="153.28" default-y="-105.00">
        <chord />
        <pitch>
          <step>F</step>
          <alter>1</alter>
          <octave>4</octave>
        </pitch>
        <duration>4</duration>
        <voice>5</voice>
        <type>quarter</type>
        <stem>none</stem>
        <staff>2</staff>
        <notations>
          <technical>
            <string>1</string>
            <fret>2</fret>
          </technical>
        </notations>
      </note>
      <note default-x="214.46" default-y="-165.00">
        <pitch>
          <step>C</step>
          <octave>3</octave>
        </pitch>
        <duration>1</duration>
        <voice>5</voice>
        <type>16th</type>
        <stem>none</stem>
        <staff>2</staff>
        <notations>
          <technical>
            <string>5</string>
            <fret>3</fret>
          </technical>
        </notations>
      </note>
      <note>
        <rest />
        <duration>1</duration>
        <voice>5</voice>
        <type>16th</type>
        <staff>2</staff>
      </note>
      <note default-x="270.07" default-y="-165.00">
        <pitch>
          <step>C</step>
          <octave>3</octave>
        </pitch>
        <duration>2</duration>
        <voice>5</voice>
        <type>eighth</type>
        <stem>none</stem>
        <staff>2</staff>
        <notations>
          <technical>
            <string>5</string>
            <fret>3</fret>
          </technical>
        </notations>
      </note>
      <note default-x="314.56" default-y="-150.00">
        <pitch>
          <step>E</step>
          <octave>3</octave>
        </pitch>
        <duration>4</duration>
        <voice>5</voice>
        <type>quarter</type>
        <stem>none</stem>
        <staff>2</staff>
        <notations>
          <technical>
            <string>4</string>
            <fret>2</fret>
          </technical>
        </notations>
      </note>
      <note default-x="314.56" default-y="-135.00">
        <chord />
        <pitch>
          <step>G</step>
          <octave>3</octave>
        </pitch>
        <duration>4</duration>
        <voice>5</voice>
        <type>quarter</type>
        <stem>none</stem>
        <staff>2</staff>
        <notations>
          <technical>
            <string>3</string>
            <fret>0</fret>
          </technical>
        </notations>
      </note>
      <note default-x="314.56" default-y="-120.00">
        <chord />
        <pitch>
          <step>D</step>
          <octave>4</octave>
        </pitch>
        <duration>4</duration>
        <voice>5</voice>
        <type>quarter</type>
        <stem>none</stem>
        <staff>2</staff>
        <notations>
          <technical>
            <string>2</string>
            <fret>3</fret>
          </technical>
        </notations>
      </note>
      <note default-x="314.56" default-y="-105.00">
        <chord />
        <pitch>
          <step>G</step>
          <octave>4</octave>
        </pitch>
        <duration>4</duration>
        <voice>5</voice>
        <type>quarter</type>
        <stem>none</stem>
        <staff>2</staff>
        <notations>
          <technical>
            <string>1</string>
            <fret>3</fret>
          </technical>
        </notations>
      </note>
    </measure>
    <measure number="9" width="371.91">
      <beats>16</beats>
      <note default-x="15.42" default-y="-180.00">
        <pitch>
          <step>G</step>
          <octave>2</octave>
        </pitch>
        <duration>1</duration>
        <voice>5</voice>
        <type>16th</type>
        <stem>none</stem>
        <staff>2</staff>
        <notations>
          <technical>
            <string>6</string>
            <fret>3</fret>
          </technical>
        </notations>
      </note>
      <note>
        <rest />
        <duration>1</duration>
        <voice>5</voice>
        <type>16th</type>
        <staff>2</staff>
      </note>
      <note default-x="70.40" default-y="-180.00">
        <pitch>
          <step>G</step>
          <octave>2</octave>
        </pitch>
        <duration>2</duration>
        <voice>5</voice>
        <type>eighth</type>
        <stem>none</stem>
        <staff>2</staff>
        <notations>
          <technical>
            <string>6</string>
            <fret>3</fret>
          </technical>
        </notations>
      </note>
      <note default-x="114.39" default-y="-150.00">
        <pitch>
          <step>D</step>
          <octave>3</octave>
        </pitch>
        <duration>4</duration>
        <voice>5</voice>
        <type>quarter</type>
        <stem>none</stem>
        <staff>2</staff>
        <notations>
          <technical>
            <string>4</string>
            <fret>0</fret>
          </technical>
        </notations>
      </note>
      <note default-x="114.39" default-y="-135.00">
        <chord />
        <pitch>
          <step>G</step>
          <octave>3</octave>
        </pitch>
        <duration>4</duration>
        <voice>5</voice>
        <type>quarter</type>
        <stem>none</stem>
        <staff>2</staff>
        <notations>
          <technical>
            <string>3</string>
            <fret>0</fret>
          </technical>
        </notations>
      </note>
      <note default-x="114.39" default-y="-120.00">
        <chord />
        <pitch>
          <step>D</step>
          <octave>4</octave>
        </pitch>
        <duration>4</duration>
        <voice>5</voice>
        <type>quarter</type>
        <stem>none</stem>
        <staff>2</staff>
        <notations>
          <technical>
            <string>2</string>
            <fret>3</fret>
          </technical>
        </notations>
      </note>
      <note default-x="114.39" default-y="-105.00">
        <chord />
        <pitch>
          <step>G</step>
          <octave>4</octave>
        </pitch>
        <duration>4</duration>
        <voice>5</voice>
        <type>quarter</type>
        <stem>none</stem>
        <staff>2</staff>
        <notations>
          <technical>
            <string>1</string>
            <fret>3</fret>
          </technical>
        </notations>
      </note>
      <note default-x="174.87" default-y="-180.00">
        <pitch>
          <step>G</step>
          <octave>2</octave>
        </pitch>
        <duration>1</duration>
        <voice>5</voice>
        <type>16th</type>
        <stem>none</stem>
        <staff>2</staff>
        <notations>
          <technical>
            <string>6</string>
            <fret>3</fret>
          </technical>
        </notations>
      </note>
      <note>
        <rest />
        <duration>1</duration>
        <voice>5</voice>
        <type>16th</type>
        <staff>2</staff>
      </note>
      <note default-x="229.85" default-y="-180.00">
        <pitch>
          <step>G</step>
          <octave>2</octave>
        </pitch>
        <duration>2</duration>
        <voice>5</voice>
        <type>eighth</type>
        <stem>none</stem>
        <staff>2</staff>
        <notations>
          <technical>
            <string>6</string>
            <fret>3</fret>
          </technical>
        </notations>
      </note>
      <note default-x="273.84" default-y="-150.00">
        <pitch>
          <step>D</step>
          <octave>3</octave>
        </pitch>
        <duration>2</duration>
        <voice>5</voice>
        <type>eighth</type>
        <stem>none</stem>
        <staff>2</staff>
        <notations>
          <technical>
            <string>4</string>
            <fret>0</fret>
          </technical>
        </notations>
      </note>
      <note default-x="273.84" default-y="-135.00">
        <chord />
        <pitch>
          <step>G</step>
          <octave>3</octave>
        </pitch>
        <duration>2</duration>
        <voice>5</voice>
        <type>eighth</type>
        <stem>none</stem>
        <staff>2</staff>
        <notations>
          <technical>
            <string>3</string>
            <fret>0</fret>
          </technical>
        </notations>
      </note>
      <note default-x="273.84" default-y="-120.00">
        <chord />
        <pitch>
          <step>D</step>
          <octave>4</octave>
        </pitch>
        <duration>2</duration>
        <voice>5</voice>
        <type>eighth</type>
        <stem>none</stem>
        <staff>2</staff>
        <notations>
          <technical>
            <string>2</string>
            <fret>3</fret>
          </technical>
        </notations>
      </note>
      <note default-x="273.84" default-y="-105.00">
        <chord />
        <pitch>
          <step>G</step>
          <octave>4</octave>
        </pitch>
        <duration>2</duration>
        <voice>5</voice>
        <type>eighth</type>
        <stem>none</stem>
        <staff>2</staff>
        <notations>
          <technical>
            <string>1</string>
            <fret>3</fret>
          </technical>
        </notations>
      </note>
      <note default-x="317.83" default-y="-165.00">
        <pitch>
          <step>A</step>
          <octave>2</octave>
        </pitch>
        <duration>1</duration>
        <voice>5</voice>
        <type>16th</type>
        <stem>none</stem>
        <staff>2</staff>
        <notations>
          <slur type="start" number="1" />
          <technical>
            <string>5</string>
            <fret>0</fret>
          </technical>
        </notations>
      </note>
      <note default-x="345.32" default-y="-165.00">
        <pitch>
          <step>B</step>
          <octave>2</octave>
        </pitch>
        <duration>1</duration>
        <voice>5</voice>
        <type>16th</type>
        <stem>none</stem>
        <staff>2</staff>
        <notations>
          <slur type="stop" number="1" />
          <technical>
            <string>5</string>
            <fret>2</fret>
          </technical>
        </notations>
      </note>
    </measure>
    <measure number="10" width="330.75">
      <beats>16</beats>
      <note default-x="15.42" default-y="-150.00">
        <pitch>
          <step>D</step>
          <octave>3</octave>
        </pitch>
        <duration>1</duration>
        <voice>5</voice>
        <type>16th</type>
        <stem>none</stem>
        <staff>2</staff>
        <notations>
          <technical>
            <string>4</string>
            <fret>0</fret>
          </technical>
        </notations>
      </note>
      <note>
        <rest />
        <duration>1</duration>
        <voice>5</voice>
        <type>16th</type>
        <staff>2</staff>
      </note>
      <note default-x="69.94" default-y="-150.00">
        <pitch>
          <step>D</step>
          <octave>3</octave>
        </pitch>
        <duration>2</duration>
        <voice>5</voice>
        <type>eighth</type>
        <stem>none</stem>
        <staff>2</staff>
        <notations>
          <technical>
            <string>4</string>
            <fret>0</fret>
          </technical>
        </notations>
      </note>
      <note default-x="113.56" default-y="-150.00">
        <pitch>
          <step>D</step>
          <octave>3</octave>
        </pitch>
        <duration>4</duration>
        <voice>5</voice>
        <type>quarter</type>
        <stem>none</stem>
        <staff>2</staff>
        <notations>
          <technical>
            <string>4</string>
            <fret>0</fret>
          </technical>
        </notations>
      </note>
      <note default-x="113.56" default-y="-135.00">
        <chord />
        <pitch>
          <step>A</step>
          <octave>3</octave>
        </pitch>
        <duration>4</duration>
        <voice>5</voice>
        <type>quarter</type>
        <stem>none</stem>
        <staff>2</staff>
        <notations>
          <technical>
            <string>3</string>
            <fret>2</fret>
          </technical>
        </notations>
      </note>
      <note default-x="113.56" default-y="-120.00">
        <chord />
        <pitch>
          <step>D</step>
          <octave>4</octave>
        </pitch>
        <duration>4</duration>
        <voice>5</voice>
        <type>quarter</type>
        <stem>none</stem>
        <staff>2</staff>
        <notations>
          <technical>
            <string>2</string>
            <fret>3</fret>
          </technical>
        </notations>
      </note>
      <note default-x="173.53" default-y="-165.00">
        <pitch>
          <step>C</step>
          <octave>3</octave>
        </pitch>
        <duration>1</duration>
        <voice>5</voice>
        <type>16th</type>
        <stem>none</stem>
        <staff>2</staff>
        <notations>
          <technical>
            <string>5</string>
            <fret>3</fret>
          </technical>
        </notations>
      </note>
      <note>
        <rest />
        <duration>1</duration>
        <voice>5</voice>
        <type>16th</type>
        <staff>2</staff>
      </note>
      <note default-x="228.05" default-y="-165.00">
        <pitch>
          <step>C</step>
          <octave>3</octave>
        </pitch>
        <duration>2</duration>
        <voice>5</voice>
        <type>eighth</type>
        <stem>none</stem>
        <staff>2</staff>
        <notations>
          <technical>
            <string>5</string>
            <fret>3</fret>
          </technical>
        </notations>
      </note>
      <note default-x="271.67" default-y="-150.00">
        <pitch>
          <step>E</step>
          <octave>3</octave>
        </pitch>
        <duration>4</duration>
        <voice>5</voice>
        <type>quarter</type>
        <stem>none</stem>
        <staff>2</staff>
        <notations>
          <technical>
            <string>4</string>
            <fret>2</fret>
          </technical>
        </notations>
      </note>
      <note default-x="271.67" default-y="-135.00">
        <chord />
        <pitch>
          <step>G</step>
          <octave>3</octave>
        </pitch>
        <duration>4</duration>
        <voice>5</voice>
        <type>quarter</type>
        <stem>none</stem>
        <staff>2</staff>
        <notations>
          <technical>
            <string>3</string>
            <fret>0</fret>
          </technical>
        </notations>
      </note>
      <note default-x="271.67" default-y="-120.00">
        <chord />
        <pitch>
          <step>D</step>
          <octave>4</octave>
        </pitch>
        <duration>4</duration>
        <voice>5</voice>
        <type>quarter</type>
        <stem>none</stem>
        <staff>2</staff>
        <notations>
          <technical>
            <string>2</string>
            <fret>3</fret>
          </technical>
        </notations>
      </note>
    </measure>
    <measure number="11" width="420.31">
      <beats>16</beats>
      <note default-x="53.18" default-y="-180.00">
        <pitch>
          <step>G</step>
          <octave>2</octave>
        </pitch>
        <duration>1</duration>
        <voice>5</voice>
        <type>16th</type>
        <stem>none</stem>
        <staff>2</staff>
        <notations>
          <technical>
            <string>6</string>
            <fret>3</fret>
          </technical>
        </notations>
      </note>
      <note>
        <rest />
        <duration>1</duration>
        <voice>5</voice>
        <type>16th</type>
        <staff>2</staff>
      </note>
      <note default-x="106.51" default-y="-180.00">
        <pitch>
          <step>G</step>
          <octave>2</octave>
        </pitch>
        <duration>2</duration>
        <voice>5</voice>
        <type>eighth</type>
        <stem>none</stem>
        <staff>2</staff>
        <notations>
          <technical>
            <string>6</string>
            <fret>3</fret>
          </technical>
        </notations>
      </note>
      <note default-x="149.18" default-y="-150.00">
        <pitch>
          <step>D</step>
          <octave>3</octave>
        </pitch>
        <duration>4</duration>
        <voice>5</voice>
        <type>quarter</type>
        <stem>none</stem>
        <staff>2</staff>
        <notations>
          <technical>
            <string>4</string>
            <fret>0</fret>
          </technical>
        </notations>
      </note>
      <note default-x="149.18" default-y="-135.00">
        <chord />
        <pitch>
          <step>G</step>
          <octave>3</octave>
        </pitch>
        <duration>4</duration>
        <voice>5</voice>
        <type>quarter</type>
        <stem>none</stem>
        <staff>2</staff>
        <notations>
          <technical>
            <string>3</string>
            <fret>0</fret>
          </technical>
        </notations>
      </note>
      <note default-x="149.18" default-y="-120.00">
        <chord />
        <pitch>
          <step>D</step>
          <octave>4</octave>
        </pitch>
        <duration>4</duration>
        <voice>5</voice>
        <type>quarter</type>
        <stem>none</stem>
        <staff>2</staff>
        <notations>
          <technical>
            <string>2</string>
            <fret>3</fret>
          </technical>
        </notations>
      </note>
      <note default-x="149.18" default-y="-105.00">
        <chord />
        <pitch>
          <step>G</step>
          <octave>4</octave>
        </pitch>
        <duration>4</duration>
        <voice>5</voice>
        <type>quarter</type>
        <stem>none</stem>
        <staff>2</staff>
        <notations>
          <technical>
            <string>1</string>
            <fret>3</fret>
          </technical>
        </notations>
      </note>
      <note default-x="207.86" default-y="-165.00">
        <pitch>
          <step>A</step>
          <octave>2</octave>
        </pitch>
        <duration>1</duration>
        <voice>5</voice>
        <type>16th</type>
        <stem>none</stem>
        <staff>2</staff>
        <notations>
          <slur type="start" number="1" />
          <technical>
            <string>5</string>
            <fret>0</fret>
          </technical>
        </notations>
      </note>
      <note default-x="234.53" default-y="-165.00">
        <pitch>
          <step>B</step>
          <octave>2</octave>
        </pitch>
        <duration>1</duration>
        <voice>5</voice>
        <type>16th</type>
        <stem>none</stem>
        <staff>2</staff>
        <notations>
          <slur type="stop" number="1" />
          <technical>
            <string>5</string>
            <fret>2</fret>
          </technical>
        </notations>
      </note>
      <note default-x="261.20" default-y="-150.00">
        <pitch>
          <step>D</step>
          <octave>3</octave>
        </pitch>
        <duration>1</duration>
        <voice>5</voice>
        <type>16th</type>
        <stem>none</stem>
        <staff>2</staff>
        <notations>
          <technical>
            <string>4</string>
            <fret>0</fret>
          </technical>
        </notations>
      </note>
      <note>
        <rest />
        <duration>1</duration>
        <voice>5</voice>
        <type>16th</type>
        <staff>2</staff>
      </note>
      <note>
        <rest />
        <duration>1</duration>
        <voice>5</voice>
        <type>16th</type>
        <staff>2</staff>
      </note>
      <note>
        <rest />
        <duration>1</duration>
        <voice>5</voice>
        <type>16th</type>
        <staff>2</staff>
      </note>
      <note default-x="367.87" default-y="-165.00">
        <pitch>
          <step>A</step>
          <octave>2</octave>
        </pitch>
        <duration>1</duration>
        <voice>5</voice>
        <type>16th</type>
        <stem>none</stem>
        <staff>2</staff>
        <notations>
          <slur type="start" number="1" />
          <technical>
            <string>5</string>
            <fret>0</fret>
          </technical>
        </notations>
      </note>
      <note default-x="394.54" default-y="-165.00">
        <pitch>
          <step>B</step>
          <octave>2</octave>
        </pitch>
        <duration>1</duration>
        <voice>5</voice>
        <type>16th</type>
        <stem>none</stem>
        <staff>2</staff>
        <notations>
          <slur type="stop" number="1" />
          <technical>
            <string>5</string>
            <fret>2</fret>
          </technical>
        </notations>
      </note>
    </measure>
    <measure number="12" width="327.49">
      <beats>16</beats>
      <note default-x="15.42" default-y="-150.00">
        <pitch>
          <step>D</step>
          <octave>3</octave>
        </pitch>
        <duration>1</duration>
        <voice>5</voice>
        <type>16th</type>
        <stem>none</stem>
        <staff>2</staff>
        <notations>
          <technical>
            <string>4</string>
            <fret>0</fret>
          </technical>
        </notations>
      </note>
      <note>
        <rest />
        <duration>1</duration>
        <voice>5</voice>
        <type>16th</type>
        <staff>2</staff>
      </note>
      <note default-x="69.38" default-y="-150.00">
        <pitch>
          <step>D</step>
          <octave>3</octave>
        </pitch>
        <duration>2</duration>
        <voice>5</voice>
        <type>eighth</type>
        <stem>none</stem>
        <staff>2</staff>
        <notations>
          <technical>
            <string>4</string>
            <fret>0</fret>
          </technical>
        </notations>
      </note>
      <note default-x="112.55" default-y="-150.00">
        <pitch>
          <step>D</step>
          <octave>3</octave>
        </pitch>
        <duration>4</duration>
        <voice>5</voice>
        <type>quarter</type>
        <stem>none</stem>
        <staff>2</staff>
        <notations>
          <technical>
            <string>4</string>
            <fret>0</fret>
          </technical>
        </notations>
      </note>
      <note default-x="112.55" default-y="-135.00">
        <chord />
        <pitch>
          <step>A</step>
          <octave>3</octave>
        </pitch>
        <duration>4</duration>
        <voice>5</voice>
        <type>quarter</type>
        <stem>none</stem>
        <staff>2</staff>
        <notations>
          <technical>
            <string>3</string>
            <fret>2</fret>
          </technical>
        </notations>
      </note>
      <note default-x="112.55" default-y="-120.00">
        <chord />
        <pitch>
          <step>D</step>
          <octave>4</octave>
        </pitch>
        <duration>4</duration>
        <voice>5</voice>
        <type>quarter</type>
        <stem>none</stem>
        <staff>2</staff>
        <notations>
          <technical>
            <string>2</string>
            <fret>3</fret>
          </technical>
        </notations>
      </note>
      <note default-x="171.90" default-y="-165.00">
        <pitch>
          <step>C</step>
          <octave>3</octave>
        </pitch>
        <duration>1</duration>
        <voice>5</voice>
        <type>16th</type>
        <stem>none</stem>
        <staff>2</staff>
        <notations>
          <technical>
            <string>5</string>
            <fret>3</fret>
          </technical>
        </notations>
      </note>
      <note default-x="198.88" default-y="-165.00">
        <pitch>
          <step>A</step>
          <octave>2</octave>
        </pitch>
        <duration>1</duration>
        <voice>5</voice>
        <type>16th</type>
        <stem>none</stem>
        <staff>2</staff>
        <notations>
          <technical>
            <string>5</string>
            <fret>0</fret>
          </technical>
        </notations>
      </note>
      <note default-x="225.86" default-y="-165.00">
        <pitch>
          <step>C</step>
          <octave>3</octave>
        </pitch>
        <duration>2</duration>
        <voice>5</voice>
        <type>eighth</type>
        <stem>none</stem>
        <staff>2</staff>
        <notations>
          <technical>
            <string>5</string>
            <fret>3</fret>
          </technical>
        </notations>
      </note>
      <note default-x="269.03" default-y="-150.00">
        <pitch>
          <step>E</step>
          <octave>3</octave>
        </pitch>
        <duration>4</duration>
        <voice>5</voice>
        <type>quarter</type>
        <stem>none</stem>
        <staff>2</staff>
        <notations>
          <technical>
            <string>4</string>
            <fret>2</fret>
          </technical>
        </notations>
      </note>
      <note default-x="269.03" default-y="-135.00">
        <chord />
        <pitch>
          <step>G</step>
          <octave>3</octave>
        </pitch>
        <duration>4</duration>
        <voice>5</voice>
        <type>quarter</type>
        <stem>none</stem>
        <staff>2</staff>
        <notations>
          <technical>
            <string>3</string>
            <fret>0</fret>
          </technical>
        </notations>
      </note>
      <note default-x="269.03" default-y="-120.00">
        <chord />
        <pitch>
          <step>D</step>
          <octave>4</octave>
        </pitch>
        <duration>4</duration>
        <voice>5</voice>
        <type>quarter</type>
        <stem>none</stem>
        <staff>2</staff>
        <notations>
          <technical>
            <string>2</string>
            <fret>3</fret>
          </technical>
        </notations>
      </note>
    </measure>
    <measure number="13" width="329.70">
      <beats>16</beats>
      <note default-x="15.42" default-y="-180.00">
        <pitch>
          <step>G</step>
          <octave>2</octave>
        </pitch>
        <duration>1</duration>
        <voice>5</voice>
        <type>16th</type>
        <stem>none</stem>
        <staff>2</staff>
        <notations>
          <technical>
            <string>6</string>
            <fret>3</fret>
          </technical>
        </notations>
      </note>
      <note>
        <rest />
        <duration>1</duration>
        <voice>5</voice>
        <type>16th</type>
        <staff>2</staff>
      </note>
      <note default-x="69.76" default-y="-180.00">
        <pitch>
          <step>G</step>
          <octave>2</octave>
        </pitch>
        <duration>2</duration>
        <voice>5</voice>
        <type>eighth</type>
        <stem>none</stem>
        <staff>2</staff>
        <notations>
          <technical>
            <string>6</string>
            <fret>3</fret>
          </technical>
        </notations>
      </note>
      <note default-x="113.23" default-y="-150.00">
        <pitch>
          <step>D</step>
          <octave>3</octave>
        </pitch>
        <duration>4</duration>
        <voice>5</voice>
        <type>quarter</type>
        <stem>none</stem>
        <staff>2</staff>
        <notations>
          <technical>
            <string>4</string>
            <fret>0</fret>
          </technical>
        </notations>
      </note>
      <note default-x="113.23" default-y="-135.00">
        <chord />
        <pitch>
          <step>G</step>
          <octave>3</octave>
        </pitch>
        <duration>4</duration>
        <voice>5</voice>
        <type>quarter</type>
        <stem>none</stem>
        <staff>2</staff>
        <notations>
          <technical>
            <string>3</string>
            <fret>0</fret>
          </technical>
        </notations>
      </note>
      <note default-x="113.23" default-y="-120.00">
        <chord />
        <pitch>
          <step>D</step>
          <octave>4</octave>
        </pitch>
        <duration>4</duration>
        <voice>5</voice>
        <type>quarter</type>
        <stem>none</stem>
        <staff>2</staff>
        <notations>
          <technical>
            <string>2</string>
            <fret>3</fret>
          </technical>
        </notations>
      </note>
      <note default-x="173.01" default-y="-180.00">
        <pitch>
          <step>G</step>
          <octave>2</octave>
        </pitch>
        <duration>1</duration>
        <voice>5</voice>
        <type>16th</type>
        <stem>none</stem>
        <staff>2</staff>
        <notations>
          <technical>
            <string>6</string>
            <fret>3</fret>
          </technical>
        </notations>
      </note>
      <note>
        <rest />
        <duration>1</duration>
        <voice>5</voice>
        <type>16th</type>
        <staff>2</staff>
      </note>
      <note default-x="227.35" default-y="-180.00">
        <pitch>
          <step>G</step>
          <octave>2</octave>
        </pitch>
        <duration>2</duration>
        <voice>5</voice>
        <type>eighth</type>
        <stem>none</stem>
        <staff>2</staff>
        <notations>
          <technical>
            <string>6</string>
            <fret>3</fret>
          </technical>
        </notations>
      </note>
      <note default-x="270.82" default-y="-150.00">
        <pitch>
          <step>D</step>
          <octave>3</octave>
        </pitch>
        <duration>4</duration>
        <voice>5</voice>
        <type>quarter</type>
        <stem>none</stem>
        <staff>2</staff>
        <notations>
          <technical>
            <string>4</string>
            <fret>0</fret>
          </technical>
        </notations>
      </note>
      <note default-x="270.82" default-y="-135.00">
        <chord />
        <pitch>
          <step>G</step>
          <octave>3</octave>
        </pitch>
        <duration>4</duration>
        <voice>5</voice>
        <type>quarter</type>
        <stem>none</stem>
        <staff>2</staff>
        <notations>
          <technical>
            <string>3</string>
            <fret>0</fret>
          </technical>
        </notations>
      </note>
      <note default-x="270.82" default-y="-120.00">
        <chord />
        <pitch>
          <step>D</step>
          <octave>4</octave>
        </pitch>
        <duration>4</duration>
        <voice>5</voice>
        <type>quarter</type>
        <stem>none</stem>
        <staff>2</staff>
        <notations>
          <technical>
            <string>2</string>
            <fret>3</fret>
          </technical>
        </notations>
      </note>
    </measure>
    <measure number="14" width="633.39">
      <beats>16</beats>
      <note default-x="72.72" default-y="-165.00">
        <pitch>
          <step>E</step>
          <octave>3</octave>
        </pitch>
        <duration>1</duration>
        <voice>5</voice>
        <type>16th</type>
        <stem>none</stem>
        <staff>2</staff>
        <notations>
          <technical>
            <string>5</string>
            <fret>7</fret>
          </technical>
        </notations>
      </note>
      <note default-x="109.38" default-y="-165.00">
        <pitch>
          <step>F</step>
          <octave>3</octave>
        </pitch>
        <duration>1</duration>
        <voice>5</voice>
        <type>16th</type>
        <stem>none</stem>
        <staff>2</staff>
        <notations>
          <technical>
            <string>5</string>
            <fret>8</fret>
          </technical>
        </notations>
      </note>
      <note default-x="146.03" default-y="-165.00">
        <pitch>
          <step>F</step>
          <alter>1</alter>
          <octave>3</octave>
        </pitch>
        <duration>1</duration>
        <voice>5</voice>
        <type>16th</type>
        <stem>none</stem>
        <staff>2</staff>
        <notations>
          <technical>
            <string>5</string>
            <fret>9</fret>
          </technical>
        </notations>
      </note>
      <note default-x="182.68" default-y="-150.00">
        <pitch>
          <step>A</step>
          <octave>3</octave>
        </pitch>
        <duration>1</duration>
        <voice>5</voice>
        <type>16th</type>
        <stem>none</stem>
        <staff>2</staff>
        <notations>
          <technical>
            <string>4</string>
            <fret>7</fret>
          </technical>
        </notations>
      </note>
      <note default-x="182.68" default-y="-135.00">
        <chord />
        <pitch>
          <step>D</step>
          <octave>4</octave>
        </pitch>
        <duration>1</duration>
        <voice>5</voice>
        <type>16th</type>
        <stem>none</stem>
        <staff>2</staff>
        <notations>
          <technical>
            <string>3</string>
            <fret>7</fret>
          </technical>
        </notations>
      </note>
      <note>
        <rest />
        <duration>1</duration>
        <voice>5</voice>
        <type>16th</type>
        <staff>2</staff>
      </note>
      <note default-x="255.99" default-y="-150.00">
        <pitch>
          <step>A</step>
          <octave>3</octave>
        </pitch>
        <duration>1</duration>
        <voice>5</voice>
        <type>16th</type>
        <stem>none</stem>
        <staff>2</staff>
        <notations>
          <technical>
            <string>4</string>
            <fret>7</fret>
          </technical>
        </notations>
      </note>
      <note default-x="255.99" default-y="-135.00">
        <chord />
        <pitch>
          <step>D</step>
          <octave>4</octave>
        </pitch>
        <duration>1</duration>
        <voice>5</voice>
        <type>16th</type>
        <stem>none</stem>
        <staff>2</staff>
        <notations>
          <technical>
            <string>3</string>
            <fret>7</fret>
          </technical>
        </notations>
      </note>
      <note default-x="292.64" default-y="-165.00">
        <pitch>
          <step>F</step>
          <alter>1</alter>
          <octave>3</octave>
        </pitch>
        <duration>1</duration>
        <voice>5</voice>
        <type>16th</type>
        <stem>none</stem>
        <staff>2</staff>
        <notations>
          <articulations>
            <falloff />
          </articulations>
          <technical>
            <string>5</string>
            <fret>9</fret>
          </technical>
        </notations>
      </note>
      <note default-x="333.73" default-y="-165.00">
        <pitch>
          <step>E</step>
          <octave>3</octave>
        </pitch>
        <duration>1</duration>
        <voice>5</voice>
        <type>16th</type>
        <stem>none</stem>
        <staff>2</staff>
        <notations>
          <technical>
            <string>5</string>
            <fret>7</fret>
          </technical>
        </notations>
      </note>
      <note default-x="370.38" default-y="-165.00">
        <pitch>
          <step>D</step>
          <octave>3</octave>
        </pitch>
        <duration>1</duration>
        <voice>5</voice>
        <type>16th</type>
        <stem>none</stem>
        <staff>2</staff>
        <notations>
          <slur type="start" number="1" />
          <technical>
            <string>5</string>
            <fret>5</fret>
          </technical>
        </notations>
      </note>
      <note default-x="407.03" default-y="-165.00">
        <pitch>
          <step>E</step>
          <octave>3</octave>
        </pitch>
        <duration>1</duration>
        <voice>5</voice>
        <type>16th</type>
        <stem>none</stem>
        <staff>2</staff>
        <notations>
          <slur type="stop" number="1" />
          <technical>
            <string>5</string>
            <fret>7</fret>
          </technical>
        </notations>
      </note>
      <note default-x="443.69" default-y="-150.00">
        <pitch>
          <step>G</step>
          <octave>3</octave>
        </pitch>
        <duration>1</duration>
        <voice>5</voice>
        <type>16th</type>
        <stem>none</stem>
        <staff>2</staff>
        <notations>
          <technical>
            <string>4</string>
            <fret>5</fret>
          </technical>
        </notations>
      </note>
      <note default-x="443.69" default-y="-135.00">
        <chord />
        <pitch>
          <step>C</step>
          <octave>4</octave>
        </pitch>
        <duration>1</duration>
        <voice>5</voice>
        <type>16th</type>
        <stem>none</stem>
        <staff>2</staff>
        <notations>
          <technical>
            <string>3</string>
            <fret>5</fret>
          </technical>
        </notations>
      </note>
      <note>
        <rest />
        <duration>1</duration>
        <voice>5</voice>
        <type>16th</type>
        <staff>2</staff>
      </note>
      <note default-x="517.00" default-y="-150.00">
        <pitch>
          <step>G</step>
          <octave>3</octave>
        </pitch>
        <duration>2</duration>
        <voice>5</voice>
        <type>eighth</type>
        <stem>none</stem>
        <staff>2</staff>
        <notations>
          <technical>
            <string>4</string>
            <fret>5</fret>
          </technical>
        </notations>
      </note>
      <note default-x="517.00" default-y="-135.00">
        <chord />
        <pitch>
          <step>C</step>
          <octave>4</octave>
        </pitch>
        <duration>2</duration>
        <voice>5</voice>
        <type>eighth</type>
        <stem>none</stem>
        <staff>2</staff>
        <notations>
          <technical>
            <string>3</string>
            <fret>5</fret>
          </technical>
        </notations>
      </note>
      <note default-x="575.64" default-y="-165.00">
        <pitch>
          <step>E</step>
          <octave>3</octave>
        </pitch>
        <duration>2</duration>
        <voice>5</voice>
        <type>eighth</type>
        <stem>none</stem>
        <staff>2</staff>
        <notations>
          <articulations>
            <falloff />
          </articulations>
          <technical>
            <string>5</string>
            <fret>7</fret>
          </technical>
        </notations>
      </note>
    </measure>
    <measure number="15" width="444.11">
      <beats>16</beats>
      <note default-x="15.42" default-y="-165.00">
        <pitch>
          <step>A</step>
          <octave>2</octave>
        </pitch>
        <duration>1</duration>
        <voice>5</voice>
        <type>16th</type>
        <stem>none</stem>
        <staff>2</staff>
        <notations>
          <slur type="start" number="1" />
          <technical>
            <string>5</string>
            <fret>0</fret>
          </technical>
        </notations>
      </note>
      <note default-x="55.04" default-y="-165.00">
        <pitch>
          <step>B</step>
          <octave>2</octave>
        </pitch>
        <duration>1</duration>
        <voice>5</voice>
        <type>16th</type>
        <stem>none</stem>
        <staff>2</staff>
        <notations>
          <slur type="stop" number="1" />
          <technical>
            <string>5</string>
            <fret>2</fret>
          </technical>
        </notations>
      </note>
      <note default-x="94.66" default-y="-150.00">
        <pitch>
          <step>D</step>
          <octave>3</octave>
        </pitch>
        <duration>1</duration>
        <voice>5</voice>
        <type>16th</type>
        <stem>none</stem>
        <staff>2</staff>
        <notations>
          <technical>
            <string>4</string>
            <fret>0</fret>
          </technical>
        </notations>
      </note>
      <note default-x="134.28" default-y="-150.00">
        <pitch>
          <step>D</step>
          <octave>3</octave>
        </pitch>
        <duration>1</duration>
        <voice>5</voice>
        <type>16th</type>
        <stem>none</stem>
        <staff>2</staff>
        <notations>
          <technical>
            <string>4</string>
            <fret>0</fret>
          </technical>
        </notations>
      </note>
      <note default-x="134.28" default-y="-135.00">
        <chord />
        <pitch>
          <step>G</step>
          <octave>3</octave>
        </pitch>
        <duration>1</duration>
        <voice>5</voice>
        <type>16th</type>
        <stem>none</stem>
        <staff>2</staff>
        <notations>
          <technical>
            <string>3</string>
            <fret>0</fret>
          </technical>
        </notations>
      </note>
      <note>
        <rest />
        <duration>1</duration>
        <voice>5</voice>
        <type>16th</type>
        <staff>2</staff>
      </note>
      <note default-x="213.52" default-y="-150.00">
        <pitch>
          <step>D</step>
          <octave>3</octave>
        </pitch>
        <duration>1</duration>
        <voice>5</voice>
        <type>16th</type>
        <stem>none</stem>
        <staff>2</staff>
        <notations>
          <technical>
            <string>4</string>
            <fret>0</fret>
          </technical>
        </notations>
      </note>
      <note default-x="213.52" default-y="-135.00">
        <chord />
        <pitch>
          <step>G</step>
          <octave>3</octave>
        </pitch>
        <duration>1</duration>
        <voice>5</voice>
        <type>16th</type>
        <stem>none</stem>
        <staff>2</staff>
        <notations>
          <technical>
            <string>3</string>
            <fret>0</fret>
          </technical>
        </notations>
      </note>
      <note default-x="253.14" default-y="-180.00">
        <pitch>
          <step>G</step>
          <octave>2</octave>
        </pitch>
        <duration>2</duration>
        <voice>5</voice>
        <type>eighth</type>
        <stem>none</stem>
        <staff>2</staff>
        <notations>
          <technical>
            <string>6</string>
            <fret>3</fret>
          </technical>
        </notations>
      </note>
      <note default-x="316.54" default-y="-180.00">
        <pitch>
          <step>G</step>
          <octave>2</octave>
        </pitch>
        <duration>8</duration>
        <voice>5</voice>
        <type>half</type>
        <stem>none</stem>
        <staff>2</staff>
        <notations>
          <technical>
            <string>6</string>
            <fret>3</fret>
          </technical>
        </notations>
      </note>
      <barline location="right">
        <bar-style>light-heavy</bar-style>
        <repeat direction="backward" />
      </barline>
    </measure>
  </part>
</score-partwise>