<svg width="1400" height="182" id="manche" xmlns="http://www.w3.org/2000/svg" viewBox="0 0 1400 182"><title>lemanche</title><rect width="1400" height="182" style="fill:#6b5109"/><circle cx="250" cy="91" r="12" style="fill:#f7f7f7"/><circle cx="450" cy="91" r="12" style="fill:#f7f7f7"/><circle cx="650" cy="91" r="12" style="fill:#f7f7f7"/><circle cx="850" cy="91" r="12" style="fill:#f7f7f7"/><circle cx="1150" cy="60" r="12" style="fill:#f7f7f7"/><circle cx="1150" cy="130" r="12" style="fill:#f7f7f7"/><rect width="10" height="182" style="fill:#c8c8c8"/><rect x="98" width="4" height="182" style="fill:#c8c8c8"/><rect x="198" width="4" height="182" style="fill:#c8c8c8"/><rect x="298" width="4" height="182" style="fill:#c8c8c8"/><rect x="398" width="4" height="182" style="fill:#c8c8c8"/><rect x="498" width="4" height="182" style="fill:#c8c8c8"/><rect x="598" width="4" height="182" style="fill:#c8c8c8"/><rect x="697" width="4" height="182" style="fill:#c8c8c8"/><rect x="797" width="4" height="182" style="fill:#c8c8c8"/><rect x="897" width="4" height="182" style="fill:#c8c8c8"/><rect x="997" width="4" height="182" style="fill:#c8c8c8"/><rect x="1097" width="4" height="182" style="fill:#c8c8c8"/><rect x="1197" width="4" height="182" style="fill:#c8c8c8"/><rect x="1297" width="4" height="182" style="fill:#c8c8c8"/><rect x="1396" width="4" height="182" style="fill:#c8c8c8"/><rect y="24" width="1400" height="4" style="fill:#e5e5e5"/><rect y="50" width="1400" height="4" style="fill:#e5e5e5"/><rect y="76" width="1400" height="4" style="fill:#e5e5e5"/><rect y="102" width="1400" height="4" style="fill:#e5e5e5"/><rect y="128" width="1400" height="4" style="fill:#e5e5e5"/><rect y="154" width="1400" height="4" style="fill:#e5e5e5"/></svg>