<?xml version="1.0" encoding="UTF-8" standalone="no"?>
<svg
   width="1406"
   height="160"
   viewBox="0 0 1406 160"
   fill="none"
   version="1.1"
   id="svg2488"
   sodipodi:docname="lemanche.svg"
   inkscape:version="1.2.2 (732a01da63, 2022-12-09)"
   xmlns:inkscape="http://www.inkscape.org/namespaces/inkscape"
   xmlns:sodipodi="http://sodipodi.sourceforge.net/DTD/sodipodi-0.dtd"
   xmlns="http://www.w3.org/2000/svg"
   xmlns:svg="http://www.w3.org/2000/svg">
  <defs
     id="defs2492" />
  <sodipodi:namedview
     id="namedview2490"
     pagecolor="#ffffff"
     bordercolor="#000000"
     borderopacity="0.25"
     inkscape:showpageshadow="2"
     inkscape:pageopacity="0.0"
     inkscape:pagecheckerboard="0"
     inkscape:deskcolor="#d1d1d1"
     showgrid="false"
     inkscape:zoom="1.1559539"
     inkscape:cx="967.59917"
     inkscape:cy="39.793976"
     inkscape:window-width="1920"
     inkscape:window-height="1017"
     inkscape:window-x="-8"
     inkscape:window-y="-8"
     inkscape:window-maximized="1"
     inkscape:current-layer="svg2488" />
  <path
     d="M 5.3113917,155.61071 C 4.7533558,99.17397 5.6655219,75.958424 4.9559391,4.2263452 c 0,0 1374.8462609,20.2349738 1388.4873609,20.2411598 l -0.6084,111.830775 C 1379.1925,136.29207 5.3113917,155.61071 5.3113917,155.61071 Z"
     fill="#ffc800"
     id="path2222"
     style="stroke-width:0.931158" />
  <g
     opacity="0.600006"
     id="g2226"
     transform="matrix(0.96884225,-0.00648738,0.00885233,0.8948836,1.0965653,-571.01713)">
    <path
       d="m -3.06801,811.958 c 0,-63.655 1.17872,-137.331 1.17872,-169.748 l 1442.85929,33.007 -1.18,126.132 z"
       fill="#000000"
       id="path2224" />
  </g>
  <path
     d="m 1128.1063,88.908103 c -5.1732,-0.002 -9.3681,-3.873216 -9.3763,-8.649471 -0.01,-4.776258 4.1774,-8.647166 9.3507,-8.641548 5.1647,0.003 9.3598,3.874191 9.3672,8.650428 0.018,4.771721 -4.1771,8.6436 -9.3416,8.640591 z"
     fill="#dcdcdc"
     id="path2228"
     style="stroke-width:0.931158" />
  <path
     d="m 941.22915,88.825079 c -5.17117,-0.002 -9.36994,-3.877691 -9.37359,-8.649507 -0.008,-4.77626 4.1767,-8.643578 9.34682,-8.641503 5.1672,-0.0015 9.36601,3.873243 9.37361,8.649499 0.008,4.77627 -4.17579,8.643582 -9.34684,8.641511 z"
     fill="#dcdcdc"
     id="path2230"
     style="stroke-width:0.931158" />
  <path
     d="m 777.03752,88.751238 c -5.17113,-0.0029 -9.36598,-3.874138 -9.37353,-8.649508 -0.007,-4.776266 4.17673,-8.644472 9.34781,-8.641511 5.17103,0.0021 9.36596,3.873244 9.37254,8.649507 0.008,4.776269 -4.17577,8.643583 -9.34682,8.641512 z"
     fill="#dcdcdc"
     id="path2232"
     style="stroke-width:0.931158" />
  <path
     d="m 630.12933,88.68517 c -5.17116,-0.002 -9.36601,-3.873251 -9.37354,-8.649509 -0.008,-4.776261 4.18052,-8.647184 9.34684,-8.641504 5.1711,0.003 9.36597,3.874138 9.37357,8.650394 0.0117,4.771767 -4.17581,8.643576 -9.34687,8.640619 z"
     fill="#dcdcdc"
     id="path2234"
     style="stroke-width:0.931158" />
  <path
     d="m 275.82284,88.526708 c -5.17106,-0.002 -9.37086,-3.877694 -9.37344,-8.649505 -0.008,-4.776264 4.17569,-8.643576 9.34683,-8.641509 5.1672,-0.0015 9.36596,3.874139 9.37342,8.649499 0.008,4.776268 -4.17667,8.644479 -9.34681,8.641515 z"
     fill="#dcdcdc"
     id="path2236"
     style="stroke-width:0.931158" />
  <path
     d="m 183.28509,88.485872 c -5.17105,-0.0029 -9.37087,-3.877695 -9.37342,-8.649505 -0.008,-4.776263 4.1805,-8.648082 9.34677,-8.641508 5.16627,-0.0015 9.36601,3.873246 9.37349,8.649508 0.0117,4.771757 -4.17675,8.643582 -9.34684,8.641505 z"
     fill="#dcdcdc"
     id="path2238"
     style="stroke-width:0.931158" />
  <path
     d="m 99.496825,88.448202 c -5.170896,-0.0029 -9.370289,-3.877697 -9.373216,-8.649503 -0.0074,-4.776265 4.180257,-8.648083 9.346904,-8.641513 5.166597,-0.0015 9.366407,3.873243 9.372967,8.649509 0.0127,4.772645 -4.17574,8.643574 -9.346655,8.641507 z"
     fill="#dcdcdc"
     id="path2240"
     style="stroke-width:0.931158" />
  <path
     d="m 26.402488,88.415884 c -5.170891,-0.0029 -9.366005,-3.874137 -9.373249,-8.650398 -0.0073,-4.776259 4.176076,-8.643574 9.347057,-8.640611 5.170882,0.0021 9.365975,3.873243 9.373209,8.649507 0.0073,4.776259 -4.176041,8.643571 -9.347017,8.641502 z"
     fill="#dcdcdc"
     id="path2242"
     style="stroke-width:0.931158" />
  <path
     d="m 438.27827,56.672559 c -5.17019,-0.0021 -9.36603,-3.874139 -9.37257,-8.649511 -0.008,-4.776265 4.17955,-8.648075 9.34684,-8.641507 5.17106,0.0021 9.36601,3.873243 9.37354,8.649503 0.0117,4.772657 -4.17676,8.643581 -9.34781,8.641515 z"
     fill="#dcdcdc"
     id="path2244"
     style="stroke-width:0.931158" />
  <path
     d="m 438.3752,119.86293 c -5.17105,-0.003 -9.36595,-3.87413 -9.37341,-8.64951 -0.008,-4.77627 4.18053,-8.64808 9.34678,-8.64151 5.17109,0.002 9.36604,3.87325 9.37348,8.64951 0.0117,4.77177 -4.17568,8.64357 -9.34685,8.64151 z"
     fill="#dcdcdc"
     id="path2246"
     style="stroke-width:0.931158" />
  <path
     d="M 7.165308,155.71465 6.9345188,3.7772585 c 1.1045239,0.059727 2.2089551,0.063974 3.3768482,0.064191 L 10.541989,155.65355 c -1.1679092,-2.6e-4 -2.2723412,0.003 -3.376681,0.0611 z"
     fill="#c8c8c8"
     id="path2248"
     style="stroke-width:0.931158" />
  <g
     opacity="0.199997"
     id="g2252"
     transform="matrix(0.96884225,-0.00648738,0.00885233,0.8948836,1.0965653,-571.01713)">
    <path
       d="m -1.15532,812.087 -1.94782,-0.015 1.31302,-169.774 1.947813,0.015 z"
       fill="#000000"
       id="path2250" />
  </g>
  <path
     d="m 45.818561,155.1927 -3.376746,-0.002 -0.229158,-150.8589787 3.37676,0.00156 z"
     fill="#c8c8c8"
     id="path2254"
     style="stroke-width:0.931158" />
  <mask
     id="mask0_120_2399"
     maskUnits="userSpaceOnUse"
     x="-51"
     y="642"
     width="172"
     height="171">
    <path
       d="m 35.5634,642.184 84.6296,85.949 -85.9487,84.63 -84.6296,-85.949 z"
       fill="#ffffff"
       id="path2256" />
  </mask>
  <g
     mask="url(#mask0_120_2399)"
     id="g2263"
     transform="matrix(0.96884225,-0.00648738,0.00885233,0.8948836,1.0965653,-571.01713)">
    <g
       opacity="0.199997"
       id="g2261">
      <path
         d="m 33.3121,811.818 1.3047,-168.701 c 0.6725,0.006 1.2704,0.076 1.9429,0.081 L 35.256,811.767 c -0.6687,0.061 -1.2714,0.056 -1.9439,0.051 z"
         fill="#000000"
         id="path2259" />
    </g>
  </g>
  <path
     d="M 80.056272,154.72717 79.828731,4.8928975 c 1.104413,-0.00382 2.272345,-0.00359 3.381105,0.059697 L 83.432989,154.66609 c -1.104433,0.003 -2.272348,0.003 -3.376717,0.0611 z"
     fill="#c8c8c8"
     id="path2265"
     style="stroke-width:0.931158" />
  <mask
     id="mask1_120_2399"
     maskUnits="userSpaceOnUse"
     x="-11"
     y="643"
     width="170"
     height="170">
    <path
       d="M 74.38,643.091 158.442,728.463 73.1048,812.49 -10.957,727.118 Z"
       fill="#ffffff"
       id="path2267" />
  </mask>
  <g
     mask="url(#mask1_120_2399)"
     id="g2274"
     transform="matrix(0.96884225,-0.00648738,0.00885233,0.8948836,1.0965653,-571.01713)">
    <g
       opacity="0.199997"
       id="g2272">
      <path
         d="m 74.0838,811.529 -1.9478,-0.015 1.2997,-167.49 c 0.6027,0.004 1.2709,0.005 1.9429,0.08 z"
         fill="#000000"
         id="path2270" />
    </g>
  </g>
  <path
     d="M 119.2956,154.204 119.06917,5.4481213 c 1.10069,6.831e-4 2.27692,8.596e-4 3.44016,0.060199 l 0.22629,148.6386397 c -1.16854,-2.7e-4 -2.33602,-0.001 -3.44002,0.057 z"
     fill="#c8c8c8"
     id="path2276"
     style="stroke-width:0.931158" />
  <mask
     id="mask2_120_2399"
     maskUnits="userSpaceOnUse"
     x="30"
     y="644"
     width="169"
     height="169">
    <path
       d="m 114.877,644.007 83.464,84.765 -84.734,83.434 -83.4637,-84.765 z"
       fill="#ffffff"
       id="path2278" />
  </mask>
  <g
     mask="url(#mask2_120_2399)"
     id="g2285"
     transform="matrix(0.96884225,-0.00648738,0.00885233,0.8948836,1.0965653,-571.01713)">
    <g
       opacity="0.199997"
       id="g2283">
      <path
         d="m 114.588,811.24 -1.948,-0.015 1.29,-166.285 c 0.598,0.07 1.271,0.075 1.943,0.08 z"
         fill="#000000"
         id="path2281" />
    </g>
  </g>
  <path
     d="M 160.87243,153.62312 160.64821,6.0718109 c 1.17227,-0.00338 2.27203,-0.00358 3.44493,0.055691 l 0.21925,147.4385781 c -1.16754,-2.6e-4 -2.27246,0.0581 -3.43996,0.0571 z"
     fill="#c8c8c8"
     id="path2287"
     style="stroke-width:0.931158" />
  <mask
     id="mask3_120_2399"
     maskUnits="userSpaceOnUse"
     x="73"
     y="645"
     width="168"
     height="167">
    <path
       d="m 157.781,645.007 82.801,84.091 -84.056,82.767 -82.8009,-84.092 z"
       fill="#ffffff"
       id="path2289" />
  </mask>
  <g
     mask="url(#mask3_120_2399)"
     id="g2296"
     transform="matrix(0.96884225,-0.00648738,0.00885233,0.8948836,1.0965653,-571.01713)">
    <g
       opacity="0.199997"
       id="g2294">
      <path
         d="m 157.506,810.9 -1.948,-0.015 1.28,-164.949 c 0.668,0.01 1.275,0.08 1.943,0.089 z"
         fill="#000000"
         id="path2292" />
    </g>
  </g>
  <path
     d="M 203.36093,153.04149 203.13785,6.6858214 c 1.10941,6.366e-4 2.27699,8.605e-4 3.44022,0.06019 L 206.8048,152.98085 c -1.16786,0.0615 -2.34027,0.0649 -3.44387,0.0606 z"
     fill="#c8c8c8"
     id="path2298"
     style="stroke-width:0.931158" />
  <mask
     id="mask4_120_2399"
     maskUnits="userSpaceOnUse"
     x="118"
     y="646"
     width="166"
     height="166">
    <path
       d="m 201.629,646.014 82.137,83.418 -83.418,82.138 -82.138,-83.418 z"
       fill="#ffffff"
       id="path2300" />
  </mask>
  <g
     mask="url(#mask4_120_2399)"
     id="g2307"
     transform="matrix(0.96884225,-0.00648738,0.00885233,0.8948836,1.0965653,-571.01713)">
    <g
       opacity="0.199997"
       id="g2305">
      <path
         d="m 199.417,810.622 1.266,-163.669 c 0.602,0.065 1.275,0.071 1.943,0.08 l -1.265,163.538 c -0.668,-0.009 -1.34,-0.014 -1.944,0.051 z"
         fill="#000000"
         id="path2303" />
    </g>
  </g>
  <path
     d="m 250.52482,152.40261 -0.21964,-145.0347594 3.44445,0.00199 0.22009,144.9721194 c -1.17237,0.003 -2.33638,0.0613 -3.4449,0.0606 z"
     fill="#c8c8c8"
     id="path2309"
     style="stroke-width:0.931158" />
  <mask
     id="mask5_120_2399"
     maskUnits="userSpaceOnUse"
     x="167"
     y="647"
     width="165"
     height="165">
    <path
       d="m 250.301,647.133 81.401,82.67 -82.67,81.401 -81.401,-82.67 z"
       fill="#ffffff"
       id="path2311" />
  </mask>
  <g
     mask="url(#mask5_120_2399)"
     id="g2318"
     transform="matrix(0.96884225,-0.00648738,0.00885233,0.8948836,1.0965653,-571.01713)">
    <g
       opacity="0.199997"
       id="g2316">
      <path
         d="m 248.103,810.262 1.255,-162.202 c 0.607,0.009 1.274,0.08 1.943,0.089 l -1.254,162.062 c -0.668,-0.009 -1.34,-0.015 -1.944,0.051 z"
         fill="#000000"
         id="path2314" />
    </g>
  </g>
  <path
     d="M 300.61331,151.70566 300.39558,8.0473094 c 1.10432,0.066884 2.27664,0.063514 3.37632,0.0633 l 0.21844,143.5339606 c -1.10012,0.062 -2.2724,0.0581 -3.37703,0.0611 z"
     fill="#c8c8c8"
     id="path2320"
     style="stroke-width:0.931158" />
  <mask
     id="mask6_120_2399"
     maskUnits="userSpaceOnUse"
     x="220"
     y="648"
     width="163"
     height="163">
    <path
       d="m 302.025,648.306 80.604,81.86 -81.861,80.604 -80.603,-81.86 z"
       fill="#ffffff"
       id="path2322" />
  </mask>
  <g
     mask="url(#mask6_120_2399)"
     id="g2329"
     transform="matrix(0.96884225,-0.00648738,0.00885233,0.8948836,1.0965653,-571.01713)">
    <g
       opacity="0.199997"
       id="g2327">
      <path
         d="m 301.75,809.804 -1.948,-0.015 1.246,-160.521 1.943,0.011 z"
         fill="#000000"
         id="path2325" />
    </g>
  </g>
  <path
     d="M 352.78013,151.00911 352.56412,8.7960834 c 1.17198,0.059274 2.27271,0.059957 3.4402,0.06019 l 0.22063,142.0921866 c -1.1723,0.003 -2.27626,0.0609 -3.44482,0.0606 z"
     fill="#c8c8c8"
     id="path2331"
     style="stroke-width:0.931158" />
  <mask
     id="mask7_120_2399"
     maskUnits="userSpaceOnUse"
     x="274"
     y="649"
     width="162"
     height="162">
    <path
       d="m 355.864,649.522 79.806,81.05 -81.05,79.807 -79.807,-81.051 z"
       fill="#ffffff"
       id="path2333" />
  </mask>
  <g
     mask="url(#mask7_120_2399)"
     id="g2340"
     transform="matrix(0.96884225,-0.00648738,0.00885233,0.8948836,1.0965653,-571.01713)">
    <g
       opacity="0.199997"
       id="g2338">
      <path
         d="m 355.599,809.415 -1.948,-0.015 1.234,-158.913 1.943,0.019 z"
         fill="#000000"
         id="path2336" />
    </g>
  </g>
  <path
     d="m 408.13117,150.25366 -0.21364,-140.5949917 3.4445,0.0011 0.21391,140.5323317 c -1.17236,0.003 -2.34415,0.0623 -3.44477,0.0616 z"
     fill="#c8c8c8"
     id="path2342"
     style="stroke-width:0.931158" />
  <mask
     id="mask8_120_2399"
     maskUnits="userSpaceOnUse"
     x="332"
     y="650"
     width="160"
     height="160">
    <path
       d="m 412.985,650.903 78.909,80.139 -80.139,78.909 -78.909,-80.139 z"
       fill="#ffffff"
       id="path2344" />
  </mask>
  <g
     mask="url(#mask8_120_2399)"
     id="g2351"
     transform="matrix(0.96884225,-0.00648738,0.00885233,0.8948836,1.0965653,-571.01713)">
    <g
       opacity="0.199997"
       id="g2349">
      <path
         d="m 410.855,809.037 1.216,-157.231 c 0.602,0.004 1.275,0.009 1.877,0.075 l -1.215,157.101 c -0.603,-0.005 -1.275,-0.01 -1.878,0.055 z"
         fill="#000000"
         id="path2347" />
    </g>
  </g>
  <path
     d="M 465.30076,149.49943 465.08523,10.463463 c 1.1084,6.35e-4 2.27687,0.0018 3.44888,0.06014 l 0.21051,138.914313 c -1.1714,0.003 -2.33989,0.003 -3.44386,0.0616 z"
     fill="#c8c8c8"
     id="path2353"
     style="stroke-width:0.931158" />
  <mask
     id="mask9_120_2399"
     maskUnits="userSpaceOnUse"
     x="392"
     y="652"
     width="159"
     height="158">
    <path
       d="m 471.981,652.233 78.043,79.259 -79.26,78.042 -78.042,-79.259 z"
       fill="#ffffff"
       id="path2355" />
  </mask>
  <g
     mask="url(#mask9_120_2399)"
     id="g2362"
     transform="matrix(0.96884225,-0.00648738,0.00885233,0.8948836,1.0965653,-571.01713)">
    <g
       opacity="0.199997"
       id="g2360">
      <path
         d="m 471.745,808.569 -1.947,-0.015 1.205,-155.358 c 0.604,-0.065 1.276,0.01 1.94,0.015 z"
         fill="#000000"
         id="path2358" />
    </g>
  </g>
  <path
     d="m 528.31659,148.62733 -0.2084,-137.23361 3.44449,0.0011 0.20873,137.17097 c -1.17237,0.003 -2.34029,0.0577 -3.44482,0.0615 z"
     fill="#c8c8c8"
     id="path2364"
     style="stroke-width:0.931158" />
  <mask
     id="mask10_120_2399"
     maskUnits="userSpaceOnUse"
     x="458"
     y="653"
     width="157"
     height="157">
    <path
       d="m 536.981,653.71 77.076,78.278 -78.247,77.045 -77.076,-78.277 z"
       fill="#ffffff"
       id="path2366" />
  </mask>
  <g
     mask="url(#mask10_120_2399)"
     id="g2373"
     transform="matrix(0.96884225,-0.00648738,0.00885233,0.8948836,1.0965653,-571.01713)">
    <g
       opacity="0.199997"
       id="g2371">
      <path
         d="m 536.792,808.068 -1.948,-0.015 1.191,-153.411 c 0.603,0.005 1.271,0.006 1.943,0.081 z"
         fill="#000000"
         id="path2369" />
    </g>
  </g>
  <path
     d="M 594.19167,147.75666 593.98593,12.258324 c 1.1681,0.06289 2.27658,0.06351 3.44511,0.06464 l 0.20067,135.376656 c -1.16756,-2.5e-4 -2.26724,-0.001 -3.44003,0.057 z"
     fill="#c8c8c8"
     id="path2375"
     style="stroke-width:0.931158" />
  <mask
     id="mask11_120_2399"
     maskUnits="userSpaceOnUse"
     x="527"
     y="655"
     width="155"
     height="154">
    <path
       d="m 605.033,655.241 76.045,77.23 -77.235,76.049 -76.045,-77.23 z"
       fill="#ffffff"
       id="path2377" />
  </mask>
  <g
     mask="url(#mask11_120_2399)"
     id="g2384"
     transform="matrix(0.96884225,-0.00648738,0.00885233,0.8948836,1.0965653,-571.01713)">
    <g
       opacity="0.199997"
       id="g2382">
      <path
         d="m 604.79,807.589 -1.878,-0.015 1.175,-151.401 c 0.598,0.07 1.2,0.074 1.874,0.01 z"
         fill="#000000"
         id="path2380" />
    </g>
  </g>
  <path
     d="M 664.41947,146.82821 664.21685,13.315723 c 1.10423,0.05884 2.27271,0.05906 3.44029,0.06019 l 0.20235,133.395247 c -1.16756,-0.001 -2.33604,-0.001 -3.44002,0.057 z"
     fill="#c8c8c8"
     id="path2386"
     style="stroke-width:0.931158" />
  <mask
     id="mask12_120_2399"
     maskUnits="userSpaceOnUse"
     x="601"
     y="656"
     width="152"
     height="153">
    <path
       d="m 677.474,656.906 74.983,76.152 -76.152,74.983 -74.983,-76.152 z"
       fill="#ffffff"
       id="path2388" />
  </mask>
  <g
     mask="url(#mask12_120_2399)"
     id="g2395"
     transform="matrix(0.96884225,-0.00648738,0.00885233,0.8948836,1.0965653,-571.01713)">
    <g
       opacity="0.199997"
       id="g2393">
      <path
         d="m 677.283,807.075 -1.948,-0.015 1.159,-149.192 1.943,0.02 z"
         fill="#000000"
         id="path2391" />
    </g>
  </g>
  <path
     d="M 738.60994,145.78014 738.41022,14.425347 c 1.10466,0.0043 2.27697,8.6e-4 3.3773,0.06419 l 0.20334,131.233963 c -1.10397,0.0584 -2.28127,0.0573 -3.38092,0.0567 z"
     fill="#c8c8c8"
     id="path2397"
     style="stroke-width:0.931158" />
  <mask
     id="mask13_120_2399"
     maskUnits="userSpaceOnUse"
     x="679"
     y="658"
     width="149"
     height="150">
    <path
       d="m 754.002,658.673 73.817,74.968 -74.968,73.817 -73.817,-74.968 z"
       fill="#ffffff"
       id="path2399" />
  </mask>
  <g
     mask="url(#mask13_120_2399)"
     id="g2406"
     transform="matrix(0.96884225,-0.00648738,0.00885233,0.8948836,1.0965653,-571.01713)">
    <g
       opacity="0.199997"
       id="g2404">
      <path
         d="m 751.919,806.513 1.136,-146.907 c 0.668,0 1.275,0.009 1.943,0.08 l -1.135,146.777 c -0.669,0.06 -1.272,0.055 -1.944,0.05 z"
         fill="#000000"
         id="path2402" />
    </g>
  </g>
  <path
     d="M 898.09974,143.63289 897.90656,16.663278 c 1.10422,0.05884 2.27657,0.05546 3.44505,0.05569 l 0.19197,126.853282 c -1.16787,0.0614 -2.33545,0.0612 -3.44384,0.0606 z"
     fill="#c8c8c8"
     id="path2408"
     style="stroke-width:0.931158" />
  <mask
     id="mask14_120_2399"
     maskUnits="userSpaceOnUse"
     x="846"
     y="662"
     width="144"
     height="145">
    <path
       d="m 918.626,662.396 71.356,72.468 -72.468,71.356 -71.356,-72.469 z"
       fill="#ffffff"
       id="path2410" />
  </mask>
  <g
     mask="url(#mask14_120_2399)"
     id="g2417"
     transform="matrix(0.96884225,-0.00648738,0.00885233,0.8948836,1.0965653,-571.01713)">
    <g
       opacity="0.199997"
       id="g2415">
      <path
         d="m 918.494,805.253 -1.948,-0.015 1.102,-141.881 c 0.672,0.005 1.274,0.08 1.943,0.019 z"
         fill="#000000"
         id="path2413" />
    </g>
  </g>
  <path
     d="m 990.02433,142.41329 -3.43944,-10e-4 -0.18374,-124.394935 3.43842,0.0056 z"
     fill="#c8c8c8"
     id="path2419"
     style="stroke-width:0.931158" />
  <mask
     id="mask15_120_2399"
     maskUnits="userSpaceOnUse"
     x="938"
     y="664"
     width="142"
     height="142">
    <path
       d="m 1009.9,664.538 69.97,71.051 -71.06,69.961 -69.956,-71.051 z"
       fill="#ffffff"
       id="path2421" />
  </mask>
  <g
     mask="url(#mask15_120_2399)"
     id="g2428"
     transform="matrix(0.96884225,-0.00648738,0.00885233,0.8948836,1.0965653,-571.01713)">
    <g
       opacity="0.199997"
       id="g2426">
      <path
         d="m 1007.88,804.603 1.08,-139.134 c 0.67,0.01 1.34,0.015 1.94,0.081 l -1.07,139.003 c -0.6,0.061 -1.27,0.055 -1.95,0.05 z"
         fill="#000000"
         id="path2424" />
    </g>
  </g>
  <path
     d="m 1079.7426,141.19233 -0.1885,-121.872951 3.4502,0.0011 0.1774,121.814841 c -1.0945,2.1e-4 -2.2677,-0.005 -3.4391,0.057 z"
     fill="#c8c8c8"
     id="path2430"
     style="stroke-width:0.931158" />
  <mask
     id="mask16_120_2399"
     maskUnits="userSpaceOnUse"
     x="1036"
     y="666"
     width="139"
     height="139">
    <path
       d="m 1106.05,666.692 68.56,69.63 -69.6,68.53 -68.56,-69.63 z"
       fill="#ffffff"
       id="path2432" />
  </mask>
  <g
     mask="url(#mask16_120_2399)"
     id="g2439"
     transform="matrix(0.96884225,-0.00648738,0.00885233,0.8948836,1.0965653,-571.01713)">
    <g
       opacity="0.199997"
       id="g2437">
      <path
         d="m 1105.99,803.885 -1.95,-0.015 1.06,-136.247 c 0.67,0.071 1.34,0.076 1.94,0.081 z"
         fill="#000000"
         id="path2435" />
    </g>
  </g>
  <path
     d="M 1176.4066,139.85597 1176.226,20.679426 c 1.1717,0.0047 2.3455,0.06753 3.45,0.06371 l 0.1799,119.051254 c -1.1051,0.062 -2.2768,0.0618 -3.4493,0.0616 z"
     fill="#c8c8c8"
     id="path2441"
     style="stroke-width:0.931158" />
  <mask
     id="mask17_120_2399"
     maskUnits="userSpaceOnUse"
     x="1137"
     y="669"
     width="136"
     height="136">
    <path
       d="m 1205.87,669.002 67,68.045 -68.04,67.001 -67,-68.045 z"
       fill="#ffffff"
       id="path2443" />
  </mask>
  <g
     mask="url(#mask17_120_2399)"
     id="g2450"
     transform="matrix(0.96884225,-0.00648738,0.00885233,0.8948836,1.0965653,-571.01713)">
    <g
       opacity="0.199997"
       id="g2448">
      <path
         d="m 1205.77,803.116 -1.87,-0.014 1.03,-133.168 1.87,0.014 z"
         fill="#000000"
         id="path2446" />
    </g>
  </g>
  <path
     d="m 1282.1784,138.46309 -0.1809,-116.229494 3.4396,-0.0025 0.1796,116.170424 c -1.1717,0.003 -2.2754,0.0618 -3.4383,0.0615 z"
     fill="#c8c8c8"
     id="path2452"
     style="stroke-width:0.931158" />
  <mask
     id="mask18_120_2399"
     maskUnits="userSpaceOnUse"
     x="1248"
     y="671"
     width="133"
     height="133">
    <path
       d="m 1314.99,671.492 65.4,66.421 -66.39,65.367 -65.4,-66.421 z"
       fill="#ffffff"
       id="path2454" />
  </mask>
  <g
     mask="url(#mask18_120_2399)"
     id="g2461"
     transform="matrix(0.96884225,-0.00648738,0.00885233,0.8948836,1.0965653,-571.01713)">
    <g
       opacity="0.199997"
       id="g2459">
      <path
         d="m 1314.95,802.35 -1.88,-0.015 1,-129.945 c 0.61,0.005 1.28,0.08 1.88,0.085 z"
         fill="#000000"
         id="path2457" />
    </g>
  </g>
  <mask
     id="mask19_120_2399"
     maskUnits="userSpaceOnUse"
     x="760"
     y="660"
     width="147"
     height="147">
    <path
       d="m 834.286,660.468 72.651,73.785 -73.784,72.651 -72.652,-73.784 z"
       fill="#ffffff"
       id="path2463" />
  </mask>
  <g
     mask="url(#mask19_120_2399)"
     id="g2470"
     transform="matrix(0.96884225,-0.00648738,0.00885233,0.8948836,1.0965653,-571.01713)">
    <g
       opacity="0.199997"
       id="g2468">
      <path
         d="m 834.134,805.942 c -0.602,-0.075 -1.275,-0.01 -1.948,-0.015 l 1.118,-144.497 c 0.673,0.005 1.345,0.08 1.948,0.015 z"
         fill="#000000"
         id="path2466" />
    </g>
  </g>
  <path
     d="M 816.37337,144.79585 816.17739,15.480614 c 1.16754,0.0011 2.27168,0.05998 3.4441,0.06464 l 0.19185,129.193556 c -1.16752,-2.5e-4 -2.27152,0.0573 -3.43997,0.0571 z"
     fill="#c8c8c8"
     id="path2472"
     style="stroke-width:0.931158" />
  <path
     d="m 1392.813,137.02511 -0.17,-113.235967 c 4.2154,0.06486 7.7232,0.124584 10.6488,0.130061 l 0.1777,112.930756 c -2.926,0.0572 -6.4328,0.11466 -10.6565,0.17517 z"
     fill="#ececec"
     id="path2474"
     style="stroke-width:0.931158" />
  <path
     d="m 8.3990295,15.144861 0.018588,-1.781956 1384.6890825,18.172434 -0.021,1.786448 z"
     fill="#c8c8c8"
     id="path2476"
     style="stroke-width:0.931158" />
  <path
     d="m 8.4359735,41.326168 0.012983,-1.732697 1383.8591435,12.061064 -0.01,1.725548 z"
     fill="#c8c8c8"
     id="path2478"
     style="stroke-width:0.931158" />
  <path
     d="m 9.24677,70.313308 0.00869,-1.673601 1381.75044,3.29488 -0.01,1.676342 z"
     fill="#c8c8c8"
     id="path2480"
     style="stroke-width:0.931158" />
  <path
     d="M 9.5868487,93.607294 9.5826773,91.9821 1391.718,91.891541 l 0.01,1.625163 z"
     fill="#c8c8c8"
     id="path2482"
     style="stroke-width:0.931158" />
  <path
     d="m 9.5515831,119.73806 -0.010087,-1.57682 1382.9961039,-6.06112 0.01,1.57685 z"
     fill="#c8c8c8"
     id="path2484"
     style="stroke-width:0.931158" />
  <path
     d="m 10.221338,140.18391 -0.02535,-1.53286 1382.748012,-7.98449 0.024,1.53287 z"
     fill="#c8c8c8"
     id="path2486"
     style="stroke-width:0.931158" />
</svg>
